<svg xmlns="http://www.w3.org/2000/svg" viewBox="0 0 528.23 451.2">
    <g id="a3ec4795-c35c-4c6c-a468-e0820d3f131f" data-name="Layer 2">
        <g id="ace63299-ccc4-4a6f-a3c0-046e7937f88d" data-name="Layer 2">
            <path
                d="M519.86,229.27a323.8,323.8,0,0,0-9.05-66c-6.19-25.29-16.39-62.62-40.16-77.46-1.85-1.16-23.18-20.82-29.5-9.72-6.62,11.61-32.57,169.61-45.81,204a326.44,326.44,0,0,1-24.28,50.58c-8.49,14.18-18.92,30.88-36.61,34.65-11.66,2.48-23.95-1.81-33.59-8.83-28-20.37-121.24-120.48-138.48-111C155.44,249.17,225.89,399,224,412a492.93,492.93,0,0,1-78.86-122c-21.82-48.2-36-99.54-51.46-150C89,124.61,74.74,49,61.77,54.07c-2.09.82-3.64,2.58-5.1,4.28-5.22,6.07-10.75,11.92-15.21,18.56A132.21,132.21,0,0,0,25.29,111.6c-7.45,24-9.78,49.57-8.39,74.55,3,54.21,42.1,234.37,54.43,252.07,2.14,3.08,445.63,6.35,451.21-2.28C534.6,417.24,521.4,274.28,519.86,229.27Z"
                style="fill:#f4e7e4" />
            <path
                d="M383.24,81.77a14.45,14.45,0,0,0-5.5-4.84A25.24,25.24,0,0,0,362,73.86a.62.62,0,0,0-.51.62.41.41,0,0,0-.34.08c-3.94,2.9-8.25,6.56-10.55,11.19s-.53,8.83,1.64,13c2,3.77,2,6.55.25,10.46a24.46,24.46,0,0,0-2.37,6.79c-.5,4,1.21,7.82,5,8.76a12.14,12.14,0,0,0,5.16-.09,20.59,20.59,0,0,1,3.85-.8c1.91,0,1.22,5.16,3,4.83,3.34-.61,8.31-3,9.84-4.91,7.09-8.82,7.85-22.46,7.74-34.07C384.71,87,384.61,84.11,383.24,81.77Z"
                style="fill:#512c29" />
            <path
                d="M383,217.17c-.06-.36-.13-.72-.19-1.08a.48.48,0,0,0-.08-.42c-2.43-13.49-4.83-27-7.46-40.44-1.33-6.78-2.68-13.57-4.11-20.33a68.27,68.27,0,0,0-2.37-8.88c-.58-1.6-1.58-3.27-2.41-5-1-.77-2.56-3.4-3.42-4.33-3.1,1-43.31,29.56-62.63,37.08-5.1,2-10.43,3-15.44,5.45-2.76,1.36-12.53,6.75-12.53,10.9,0,1.14-2,2.85-2.28,4.13a9.89,9.89,0,0,0,.31,4.43c.6,3.26,1.48,7.26,4.21,9.43,7,5.55,40.38-3.16,48.7-4.09,14-1.57,33.87-11.56,45.89.19,4.22,4.12,7.4,9.17,12.68,12.12.06.36.13.73.2,1.1C382.22,218.15,383.16,217.86,383,217.17Z"
                style="fill:#ad5849" />
            <path
                d="M500,438.42c1.44-6-.09-14.35-.66-20-1.41-13.94-3-27.86-5.15-41.71-2.74-17.75-5.29-35.55-8.91-53.15a372.64,372.64,0,0,0-11-39.92c-1.78-5.48-3.28-10.76-6.9-15.35a51.1,51.1,0,0,0-6.29-6.82,6.78,6.78,0,0,1-2-3.68c-.67-3.13-4.79-4.23-8.53-4.78-3.47-.51-7.21.14-10.69.35-4.13.25-8.26.43-12.4.44-8,0-15.77-1.21-23.7-2.24-6.68-.87-13.44-1.16-19.82,1.21a.54.54,0,0,0-.15.94c.53,2.32,1.05,4.65,1.54,7a6.29,6.29,0,0,1,.11.74c.08,1.08.18,2.15.31,3.22a5.75,5.75,0,0,1-1.2,4.31c-7.22,8.85-12,27.62-14.48,44.61-6,41-11.94,104.8-14.19,124.49a5.83,5.83,0,0,0,4.95,6.43c21.49,3.12,97.31,12.28,135.57-2A5.78,5.78,0,0,0,500,438.42Z"
                style="fill:#d94338" />
            <path
                d="M432.17,101.23a19.79,19.79,0,0,0-3.12-5c-.7-.87-1.58-1.72-2.19-2.65-1.12-1.7-.88-3.51-.4-5.37.89-3.53,3.67-7.55,2.72-11.25-.77-3-3.57-5.85-5.69-8A38.27,38.27,0,0,0,404.12,58.6a.58.58,0,0,0-.35,0c-.83-.36-1.86-.7-2.39-.15a.84.84,0,0,0-.11,1.11l-.24,0c-.55.08-.49.81-.14,1s.68.48,1,.7a22.35,22.35,0,0,0-8.22,29.09c2.93,6.07,6.93,11.43,9.61,17.67,2.21,5.17,4.49,10.3,8.87,13.94a.51.51,0,0,0,.62.52c.31.2,4.26,10.19,4.38,9.9.6-12.85,10.69-16.91,14.36-23A9.06,9.06,0,0,0,432.17,101.23Z"
                style="fill:#512c29" />
            <path
                d="M438,137.43c-7.5-2.23-15.15-5.2-22.88-6.49-7.55-1.26-15.74.75-23.24,1.67a.56.56,0,0,0-.3.14.41.41,0,0,0-.3-.06l-15.38,2c-2.33.31-6.71.11-6.7,3.48,0,1.51,1.17,2.9,2,4.07,1.55,2.24,3.06,4.5,4.51,6.8q3.93,6.27,7.28,12.87c3.12,6.17,5.64,27.88,14.24,27.58,3.82-.13,7.91-14.62,10.7-16.94a92.9,92.9,0,0,0,10.54-10.36s0-.06.05-.09a19.91,19.91,0,0,0,3.32-3.52,59.27,59.27,0,0,1,6.24-7.1c4.17-3.91,8.78-7.63,10.33-13.39A.56.56,0,0,0,438,137.43Z"
                style="fill:#ed8b6e" />
            <path
                d="M466.6,243.23c.62-6.74.78-13.11.81-14.83.08-5.26.1-10.52.3-15.78s.46-10.7.71-16c.25-5.13.15-10.24.31-15.4.17-5.73.57-11.47.45-17.2a69.26,69.26,0,0,0-.7-8.75c-.35-2.34-.54-5.68-2.06-7.68a3.68,3.68,0,0,0-.78-.69c-4.55-3.21-9.84-5-15.22-6.7-3.31-1.06-8.15-1.65-11-3.56-5.46-3.78-9.73,1.46-13.23,4.94a147.56,147.56,0,0,0-13.88,15.86c-5,6.67-8.68,16.11-15.14,21.59.57-.58-7.06-14.85-7.53-16.11-2.17-5.86-5.14-12.27-5.5-18.57a.45.45,0,0,0,.07-.4c0-.14-.09-.26-.13-.4a.38.38,0,0,0-.05-.15,20.66,20.66,0,0,0-4.55-7.09c-2.2-2.25-4.23-2-7.65-1.42-2.53.43-10.53,1.09-11.57,3.6-.16.38.19.62.53.6-2.22,6.54.42,13.45,1.76,20,1.85,9.08,5.59,44.91,8.51,52.45,3.77,9.72,8.28,19.55,9.1,28.27.22,2.26.64,4.49,1,6.73.29,1.68,1.3,3.39,1.46,5.16.42,4.69,3,3.84,3.71,3.83,4.39,0,10.8-.31,14.88.86,6.68,1.92,21.1,1.92,28.45,1.92,2.76,0,15.82-2.22,18.48-3,2.49-1.06,2,1.68,7.4,1.06,4.2-.47.91,4.25,4.7,5.52S465.72,252.78,466.6,243.23Z"
                style="fill:#ad5849" />
            <path
                d="M419.43,135.52A10,10,0,0,0,419,132c-.71-2.19-6.08-22.29-4.49-23.21,3.09-1.79-4.24.71-4.15.65,1.08-.65-2-.73-2.43-.59-1.64.53-2.76,2.7-3.58,4.06-2.68,4.43-6.4,8-9.75,11.95-3.47,4.06-5.77,8.59-8.63,13.06-.21.33-1.5.59-1.21.72,2.23,1,6.3,9.2,7.3,11.44.63,1.39,1.38,5.07,2.51,6,2.64,2.16,8-.23,10.44-1.58C411.71,150.69,419.08,143.76,419.43,135.52Z"
                style="fill:#ed8b6e" />
            <path
                d="M414.44,77.92c-3.31-6.4-8.15-11.27-15.53-12.28a35.4,35.4,0,0,0-21.17,4c-7.12,3.94-10.57,10.43-11.45,18.31a.61.61,0,0,0-1,.44c-1.22,17.43,2,34.68,11.8,49.4,4.92,7.37,12.79,9.15,19.39,4.25a53.33,53.33,0,0,0,9-8.86c1.26-1.52,2.49-3.08,3.65-4.68s3.13-3.42,3.66-5.37c1.14-4.12,2.84-7.92,4.21-12a42.49,42.49,0,0,0,2.1-11.17A43.32,43.32,0,0,0,414.44,77.92Z"
                style="fill:#ed8b6e" />
            <path
                d="M416.7,74.63a46.83,46.83,0,0,0-6.53-8.38c-2.05-2.23-4.39-4.84-7.44-5.65-2.59-.68-4.83.31-6.86,1.88-3.18,2.45-5.75,4.28-9.62,5.52-1.16.37-8.52,2.53-10.55,4.82a.48.48,0,0,0-.49.54c0,.08,0,.16,0,.24-.33,1.13-.57,4.19,1.51,3.4,17.75-6.71,20.13,11.25,21.15,14.1,1.55,4.37,3.71,3.73,7.25,5.64,2.66,1.43.74,11,1.77,14,.22.61,2.29,2.17,2.33,1.51a15.8,15.8,0,0,1,9.08-13.54.5.5,0,0,0,.28-.33.63.63,0,0,0,.85-.67C418.19,89.79,420.89,82,416.7,74.63Z"
                style="fill:#512c29" />
            <path
                d="M400.23,53.24a9.5,9.5,0,0,0-7.25-.68c-2.78.82-5.22,2.53-7.73,4C379.6,59.93,374,58.63,368,60.45c-11.36,3.46-17.85,16.21-12.06,27.29a6.6,6.6,0,0,1,.94,4.55c-.94,3.69-6.8,6.51-9.18,9.28a18.09,18.09,0,0,0-4.48,14c1.36,11.83,17.37,18.43,27.25,12.31.24-.16-4.8-4.45-6-5.3a10.44,10.44,0,0,1-3.82-11.16c1.35-4.6,4.28-10,9-11.07,4-.92,11.45-1.81,13.44-6.59.86-2.06.49-4.35,1.85-6.24s3.81-2.91,5.93-3.8a17.39,17.39,0,0,0,4.67-2.51c1.35-1.16,1.63-3.34,3-4.3a.8.8,0,0,1,.38.75c.05,3.34,4.89-3.26,5.6-4.37a15,15,0,0,0,2.39-7.43C407.19,60.67,404.44,55.45,400.23,53.24Z"
                style="fill:#512c29" />
            <path
                d="M420.93,96.72c-.38-1.6-1.23-2.76-2.84-2.91-4.85-.45-7.89,5.19-8.67,8.55-.75,3.21-2.4,11.33-1.34,15.28,2.35,8.78,9.1-2.52,11.09-8.37C419.79,107.47,421.75,100.06,420.93,96.72Z"
                style="fill:#ed8b6e" />
            <path
                d="M416.34,97.11c-4.18,2.22-4.38,8.39-4.74,12.49-.06.73,1.07,1,1.13.23a45.49,45.49,0,0,1,.73-6.14,1.2,1.2,0,0,0,.12-.11,3,3,0,0,1,2.77-1.33c.73.07,1-1,.23-1.13a4.39,4.39,0,0,0-2.51.5A6.51,6.51,0,0,1,417,98.06C417.64,97.71,417,96.77,416.34,97.11Z"
                style="fill:#db6542" />
            <path
                d="M390,103.37c-.51-.67-1.16-1.12-1.88-.7-1.45.85-1.51,2.73-1.23,4.2s.89,3.56,2.17,4.34c1.11.67,1.91-.47,2.08-1.48a10.21,10.21,0,0,0-.12-4.26A7.1,7.1,0,0,0,390,103.37Z"
                style="fill:#72352a" />
            <path
                d="M372,106.26a1.73,1.73,0,0,0-1.29-.84c-3-.11-.72,7,.19,8.14,1.5,2,2.37-1.22,2.38-2.54A9.94,9.94,0,0,0,372,106.26Z"
                style="fill:#72352a" />
            <path
                d="M382.21,120.25c-.94.68-2.12,2-3.31.78-.67-.67-.47-2.86-.49-3.79,0-2.14,0-4.28.08-6.41a.57.57,0,0,0-1.14,0c-.05,3.27-1,8.22.71,11.25,1.17,2.09,3.3.19,4.73-.84C383.39,120.81,382.81,119.82,382.21,120.25Z"
                style="fill:#db6542" />
            <path
                d="M395.62,95.59c-.42-1.12-3.21.46-3.88.93-2.18,1.53-7.5,2.86-7.46,4.4a.75.75,0,0,0,.36.54c3.21,2.4,6.77.24,9.18-2.16a7.54,7.54,0,0,0,1.4-1.83,5.18,5.18,0,0,0,.38-1A1.5,1.5,0,0,0,395.62,95.59Z"
                style="fill:#512c29" />
            <path
                d="M373.5,101.91a23.81,23.81,0,0,0-6-1.65c-.76-.15-4.18-.45-3.4,1.12a7.47,7.47,0,0,0,1.34,1.63,5.06,5.06,0,0,0,2.81,1.72c1.27.26,6.31.44,6.12-1.83a1.23,1.23,0,0,0-.73-.91Z"
                style="fill:#512c29" />
            <path
                d="M392.56,126.42A8.43,8.43,0,0,0,390,126c-2.36-.1-3.84.87-6,1.61-1.65.55-3.51.57-5.07,1.31.48,1.63,3.44,4,5.2,3.89,2.05-.19,4.25-1.93,6.14-3.4a10.16,10.16,0,0,0,2.36-1.76.53.53,0,0,0,.15-.47C393.05,126.82,392.91,126.59,392.56,126.42Z"
                style="fill:#efe1df" />
            <path
                d="M397.8,63.43c-.68-.28-1,.83-.31,1.11,3.75,1.54,4.27,5.82,2.7,9.11-.53,1.09-3.49,5.78-5,5.28-.7-.24-1,.87-.3,1.11,1.36.46,2.63-1.2,3.48-2.05a13,13,0,0,0,3.47-5.6C402.89,68.67,401.41,64.92,397.8,63.43Z"
                style="fill:#472724" />
            <path
                d="M382.87,73.82C377.53,72,372,74.07,367.07,76c-.67.27-.38,1.39.31,1.11,3.53-1.4,7.21-2.88,11.07-2.87s10.43,2.24,9.28,7.24c-.17.72.94,1,1.11.3C389.74,77.9,386.28,75,382.87,73.82Z"
                style="fill:#472724" />
            <path
                d="M382.14,85.23c-6.09,2.48-13.29,5.71-17.8,10.65-2.11,2.31-2.24,4.41-2.07,7.4.19,3.31-1.18,4.9-3.78,6.71-1.84,1.27-3.74,2.47-5.61,3.71-.62.41,0,1.4.58,1,2.74-1.81,6.17-3.45,8.41-5.91,2.38-2.61,1-5.23,1.46-8.36.56-4.11,5.08-6.58,8.28-8.58a70.18,70.18,0,0,1,10.83-5.5C383.12,86.07,382.82,85,382.14,85.23Z"
                style="fill:#472724" />
            <path
                d="M403.34,80.43c-.73.1-.41,1.28.3,1.11,4.82-1.13,5.75,4.94,6,8.27,0,.73,1,.72,1.15,0C411.46,86.57,409.5,79.58,403.34,80.43Z"
                style="fill:#472724" />
            <path
                d="M399.88,153.81c-1.48-2-3-4-4.57-5.92-1.05-1.29-2.14-3.19-3.69-3.87-.68-.3-1,.79-.36,1.09,1.53.67,3,3.24,4,4.52,1.29,1.62,2.55,3.28,3.78,5C399.46,155.18,400.31,154.4,399.88,153.81Z"
                style="fill:#db6542" />
            <path
                d="M419.69,81.5a9.47,9.47,0,0,0-3.51-5.57c-.59-.44-1.17.56-.58,1a7.91,7.91,0,0,1,2.82,4.3c.46,1.52,1.29,4.1-.21,5.31-.58.46.24,1.26.81.81C420.79,85.92,420.18,83.42,419.69,81.5Z"
                style="fill:#472724" />
            <path
                d="M480.57,95.12a39.55,39.55,0,0,0-3.85,3.3c-1.75-4.25-3.67-7.08-5.7-11.22-.71-1.46-1-3.51-2.32-4.58-.55-.47-1.44-3.87-2.11-4.16C460,75.66,459,83.63,459.06,86a20,20,0,0,0,1,6.23c.65,1.89,1.83,3.5,2.62,5.32a12.46,12.46,0,0,1,.77,4.23c.06,1.15.28,2.58-.52,3.54-1.22,1.47-3-1.53-3.46-2.35a37,37,0,0,1-2.09-4.12c-1.46-3.1-5.84-11.17-6.83-11.18-1.19,0-1.51,2.41-1.62,3.23a13.29,13.29,0,0,0,.91,6c1.16,3.22,3.18,6,4.56,9.1.31.7.59,1.41.88,2.13.91,2.27,0,5.4-.37,7.76-.4,2.56-.95,5.1-1.5,7.64s-1.12,4.62-.3,7.07c.5,1.53,1.42,2.91,1.86,4.46.58,2,1.26,2.62,3.18,3.4a7.73,7.73,0,0,0,6.13.08c3.17-1.41,6-4.25,8.34-6.69a.47.47,0,0,0,.07-.57l-.32-.57a.69.69,0,0,0-.11-.13c-.43-.35-.23-3.2-.1-3.8.63-2.74,2.55-5.08,3.37-7.8,1-3.29.91-6.83,2-10a24.39,24.39,0,0,1,2.53-5.12c.94-1.43,6.21-7.69,5.69-9.55C485.54,93.19,482.61,94,480.57,95.12Z"
                style="fill:#ed8b6e" />
            <path
                d="M410.38,124.53a19.28,19.28,0,0,1-2.07,4.82,13.78,13.78,0,0,1-4.54,4.54c-2.67,1.87-5.34,3.72-7.9,5.75-3,2.39-5.72,5.75-10,4.55a12.31,12.31,0,0,1-4.59-1.95c-.51.45,1.14,1.41,2.41,2.29a9.93,9.93,0,0,0,1.87.77c3.69,1,6-.62,8.71-2.89,3.84-3.22,8.18-5.78,12-9a11.87,11.87,0,0,0,3.35-4.31c.69-1.49,1.66-2.94,1.87-4.59C411.62,123.8,410.47,123.81,410.38,124.53Z"
                style="fill:#db6542" />
            <path
                d="M323.54,98.56c-.5-1.11-1.89-1.29-3.58-.31a14.16,14.16,0,0,0-4.94,4.94c-1.06,1.79-1.34,4.73-3.16,6s-3.73-.57-4.75-2c-1.88-2.72-1.35-4.79-.73-7.84.11-.55.22-1.09.37-1.62.59-2.19,7.74-11.3,3-12.68a.21.21,0,0,0-.11,0,.5.5,0,0,0-.9-.36c-1.58,2.36-4.51,6-7,7.08,1.5-4.11,4-7.74,4.81-12.13.54-3,.49-7.56-3.09-8.56a.48.48,0,0,0-.61.53c-.75,2.33-1.6,4.64-2.5,6.92-1.84,4.65-6.47,9.41-9.37,13.46a4.12,4.12,0,0,0-.76,1.43c-.52,2.41,1.68,4.55,3,6.22a24.19,24.19,0,0,1,3.88,6.24c3.21,7.64,2.35,15.78,1.16,23.76a.49.49,0,0,0,.11.4l-.24,0c-.63-.07-.62.92,0,1,1.71.18,3,1.65,4.05,2.86a26,26,0,0,1,2,2.48.59.59,0,0,0,.28.4c.26.37.53.74.77,1.12a.5.5,0,0,0,.9-.11l.09.09c-.06.11-.12.23-.19.34-.29.56.56,1.06.85.5.06-.11.11-.22.17-.32.36,0,.63-.43.39-.72,1.8-3.39,4.37-7,5.67-10.56s1.22-7.62,2-11.43a26,26,0,0,1,4.73-9.65c1.16-1.63,3.23-3.13,3.72-5.15A3.38,3.38,0,0,0,323.54,98.56Z"
                style="fill:#ed8b6e" />
            <path
                d="M436.44,257.45a18.23,18.23,0,0,0-5-7c-3.76-3-8.44-4.18-13.36-4.27-4.75-.08-10,0-13.59,3.26a17.66,17.66,0,0,0-4.34,6.5l1,.4a16.56,16.56,0,0,1,3.83-5.92c3.6-3.44,9.28-3.39,14.12-3.17s9.31,1.69,12.7,5a16.92,16.92,0,0,1,3.45,5.23Z"
                style="fill:#c47b6e" />
            <path
                d="M526.05,209c-1-1.17-37.89-32.76-41.31-39.74-3.68-7.53-14.37-18-21.6-22.82s-8.95-3.51-17.48-5.14a.58.58,0,0,0-.67.69,6.35,6.35,0,0,0-1.78,1.57.58.58,0,0,0,0,.77c-9.18,5.76-2.21,20-.79,27.95a40.73,40.73,0,0,1,.43,11.19c-.35,3.55-1.53,6.91-2,10.43-.66,4.88,1.32,8.51,5.45,11.08,5.25,3.26,11.27,1.82,17.19,2.84,6.42,1.12,41.45,18.53,52.84,17,5.23-.69,6.21.73,9.12-3.77a13.31,13.31,0,0,0,2.39-8.11A6.78,6.78,0,0,0,526.05,209Z"
                style="fill:#ad5849" />
            <path
                d="M528.16,212.93c-.3-3.91-.69-11.71-2.74-15.74a337.45,337.45,0,0,0-22-36.78c-4.32-6.36-19.6-28.74-23-33.29-4.1-.67-29.92,9.12-31.05,10-1,2.33-.07,2.48,2.44,6.2,3.93,5.82,13.2,20.77,16.58,26.93,2.94,5.36,4,11.18,6.71,16.61,2,4.1,5.07,7.2,7.69,10.89,3,4.28,5.51,8.94,8.68,13.13a30.18,30.18,0,0,0,8.88,8.19C511,225,529.51,230.46,528.16,212.93Z"
                style="fill:#ad5849" />
            <path
                d="M295.69,120.56c-.42,2-14.85,36.43-18.38,46.13-3.4,9.37-8.47,20.11-7.35,30.39.52,4.81,2.68,9.73,7.54,11.39,5.69,1.93,10.15-3,15.07-4.88,3.77-1.44,6.75-5.92,9.48-9.08,2.36-2.73,3.53-6.29,4.48-9.71,2.76-9.86,13.91-37,13.37-39.74C315.41,141.75,304,124,295.69,120.56Z"
                style="fill:#ad5849" />
            <path
                d="M420.76,257.4a111.52,111.52,0,0,1-26.91-33.66c-.3-.59-1.25-.08-.94.51A112.17,112.17,0,0,0,420,258.12C420.5,258.56,421.28,257.85,420.76,257.4Z"
                style="fill:#512c29" />
            <path
                d="M417,232.36c-3.84-11.2-10.67-21.41-13.14-33-.14-.63-1.19-.36-1.06.27,2.48,11.62,9.3,21.83,13.14,33C416.19,233.25,417.25,233,417,232.36Z"
                style="fill:#512c29" />
            <path
                d="M451.63,254a119.71,119.71,0,0,1-56.48.75c-.69-.16-1,.81-.3,1a120.89,120.89,0,0,0,57.07-.75A.51.51,0,1,0,451.63,254Z"
                style="fill:#512c29" />
            <path
                d="M462.82,158c-1.74,1.27-3.44,2.57-5.1,3.94-1.86,1.54-3.64,3.52-5.77,4.67a5.51,5.51,0,0,1-3.92.7c-1.59-.39-1.9-1.65-2.63-2.87a5.06,5.06,0,0,0-2.08-2.24c-1.82-1-3.44-1.47-4.69-3.36a11.67,11.67,0,0,1-1.69-5.88c-.23-4.67,1.59-9.31,4.2-13.1.41-.59-.56-1.15-1-.56-4.38,6.34-7.67,19.09,1.27,23.3a5,5,0,0,1,3.2,3.12,5.12,5.12,0,0,0,1.05,1.63,5.32,5.32,0,0,0,4.26,1.14,10.67,10.67,0,0,0,5.15-2.83c2.71-2.31,5.4-4.59,8.28-6.7C464,158.53,463.4,157.56,462.82,158Z"
                style="fill:#c47b6e" />
            <path
                d="M383.93,179.11c-2.31-1.83-5.31-2.22-8-3.16-2.33-.8-4.4-1.9-5.48-4.23-.47-1-.62-2.2-1.55-2.94-1.59-1.28-3.8-.32-5.21.75a14.48,14.48,0,0,0-4.75,8.86c-.05.72,2.07-.77,2.12-1.48.19-2.77,2-6.94,5.13-7.48,2.22-.38,3.66,4.07,5.08,5.31,3,2.62,7.2,2.57,10.6,4.37,6,3.16,4.56,10.28,2.77,15.51-.56,1.61-1.07,3.67-2.62,4.64-2.79,1.74-6.44,1.13-9.39.15-1.51-.5-2.83-1.33-4.29-1.9s-3.08-.47-4.21-1.63a17.06,17.06,0,0,1-2.49-3.87,45.8,45.8,0,0,0-3.88-5.93,6.37,6.37,0,0,1-1.74-3.44,4.77,4.77,0,0,1,2.33-3.75,2,2,0,0,0,.72-.72.62.62,0,0,0-.33-.84.88.88,0,0,0-.65.27c-1.85,1.48-3.7,3.61-3.21,5.93.33,1.58,1.65,2.73,2.67,4,2.45,3,3.42,7.2,6.45,9.63,3.78,3,11.08,4,15.75,3.78a5.36,5.36,0,0,0,5-3.49C387.26,192,389.45,183.47,383.93,179.11Z"
                style="fill:#c47b6e" />
            <path
                d="M426.92,275.75a71.78,71.78,0,0,1-9.52-.55l0-.05h-.09c-.32,0-.63-.05-.95-.05l-.11,0a72,72,0,0,1-23.37-7.44c-.62-.33-1.17.62-.55.94a73.61,73.61,0,0,0,23.55,7.56,119.28,119.28,0,0,0-3.92,14c-.15.7.92,1,1.07.3a119.59,119.59,0,0,1,4-14.17,72.35,72.35,0,0,0,9.89.59A.55.55,0,0,0,426.92,275.75Z"
                style="fill:#96251d" />
            <path
                d="M438.69,266a225,225,0,0,1-42.95,1c-.71-.06-.7,1,0,1.09a225,225,0,0,0,42.95-1C439.38,267,439.39,265.93,438.69,266Z"
                style="fill:#96251d" />
            <path
                d="M432.5,199.76c-1.71-3.6-5.66-6-9.34-7.7-3.3-1.54-7-2.31-10.36-.85a.6.6,0,0,0-.54.09A51.61,51.61,0,0,0,403,200c-2.61,3.17-5.43,6.9-6.21,10.9-1.33,6.75,4.75,10.52,11.48,9.19a17.87,17.87,0,0,0,5.17-2.11,4.55,4.55,0,0,1,4.75-.24c.71.37,1.29.9,2.06,1.22a9.14,9.14,0,0,0,8.35-.71c2.72-1.78,3.88-4.89,4.42-7.8C433.69,207,434.06,203,432.5,199.76Zm-.09,6.64c-.2,3.61-.78,8-3.91,10.58a7.88,7.88,0,0,1-8,.9c-1.29-.61-2.22-1.83-3.6-2.25a3,3,0,0,0-2.75.5c-1.94,1.14-3.37,2.3-5.72,2.83-5.15,1.17-10.72-.87-10.68-6.38,0-4.16,3.13-8.19,5.7-11.42a49.77,49.77,0,0,1,8.75-8.46c4.72-2.87,10.25-.22,14.32,2.39C430.84,197.87,432.67,201.56,432.41,206.4Z"
                style="fill:#c47b6e" />
            <path
                d="M333.92,186.12c-.31-2.34-2.23-4.32-3.71-6a15,15,0,0,1-3.24-4.78c-.51-1.47.24-3.66-1.06-4.81-.82-.72-2.07-.55-3.14-.34l-12.16,2.39c-.08.4-.17.81-.27,1.21l8.49-1.72c2.09-.42,5.05-1.78,6.62.26a9.49,9.49,0,0,0,0,1.6c.48,4.35,4.49,6.71,6.5,10.24,2.48,4.34-2.41,6-5.37,7.52s-5.94,3-9.52,2.18a22.16,22.16,0,0,1-8.1-3.61,6,6,0,0,0-2.65-1.41,8.6,8.6,0,0,1-.19,1.13c1.46.22,2.68,1.67,3.91,2.36a32.37,32.37,0,0,0,4,1.74c2.81,1.06,5.65,1.64,8.57.71a43.71,43.71,0,0,0,8.68-4.4C333,189.39,334.18,188.18,333.92,186.12Z"
                style="fill:#c47b6e" />
            <path
                d="M457.44,304.06c-2.85-4.45-5.88-8.79-8.67-13.29-3-4.87-6.38-10.14-6.6-16,0-.7-1.12-.71-1.09,0,.17,4.65,2.2,8.76,4.46,12.74,2.7,4.74,5.79,9.25,8.79,13.8,6,9.13,11.84,18.77,13.18,29.84.09.69,1.18.7,1.1,0C467.4,321.21,462.77,312.37,457.44,304.06Z"
                style="fill:#96251d" />
            <path d="M404.67,276.86l-8.78,6.8c-.56.43.22,1.2.77.78l8.79-6.81C406,277.2,405.22,276.43,404.67,276.86Z"
                style="fill:#96251d" />
            <path
                d="M368,198.89,352.86,163c-.27-.64-1.33-.36-1.05.29q7.56,18,15.13,35.92C367.21,199.82,368.27,199.54,368,198.89Z"
                style="fill:#512c29" />
            <path
                d="M359.75,189.31l-9.9-10.62c-.48-.52-1.25.25-.77.77l9.9,10.63C359.46,190.6,360.23,189.83,359.75,189.31Z"
                style="fill:#512c29" />
            <path
                d="M479.19,212.85a127.76,127.76,0,0,0-5.47-15.69c-1.53-3.59-3.41-7.52-6.89-9.59-7.73-4.62-15.19,2.76-17.2,9.87a.56.56,0,0,0,1.08.29c1.12-3.95,3.32-7.71,7.2-9.45A9.13,9.13,0,0,1,469.06,191c2.35,2.87,3.72,6.61,5,10a126.39,126.39,0,0,1,4,12.12A.56.56,0,0,0,479.19,212.85Z"
                style="fill:#c47b6e" />
            <path
                d="M309.65,171a96.28,96.28,0,0,1-7.27,25.38c-.29.64.65,1.19.94.55a97.08,97.08,0,0,0,7.38-25.64C310.8,170.64,309.75,170.35,309.65,171Z"
                style="fill:#512c29" />
            <path
                d="M502,158.89c-2.33,3.44-5.84,6.91-10.35,6.6s-7.86-4.1-9.66-7.86a21.68,21.68,0,0,1,2.17-21.9c.42-.58-.55-1.14-1-.56-5.38,7.43-6,18.31-.46,25.88,2.36,3.22,6,5.84,10.16,5.54,4.41-.33,7.24-3,9.59-6.44C502.86,159.56,502.38,158.3,502,158.89Z"
                style="fill:#c47b6e" />
            <path d="M303.06,181.32l-4.89,6.59c-.42.57.53,1.12.95.56l4.88-6.6C304.42,181.3,303.47,180.75,303.06,181.32Z"
                style="fill:#512c29" />
            <path
                d="M311.47,151.93q-6.84-8.88-13.13-18.14c-.39-.58-1.34,0-.94.55q6.28,9.27,13.13,18.14C311,153,311.9,152.48,311.47,151.93Z"
                style="fill:#512c29" />
            <path
                d="M495.33,190.12c-1.1-2.58-3.2-4.17-5-6.23s-2.38-5-4-7.27c-2.78-3.94-7.89-3.52-12.11-2.79-.7.12-.4,1.2.3,1.08,4-.7,8.84-1.1,11.27,2.93,1.55,2.58,2.23,5.24,4.36,7.5,2.83,3,5.15,5.6,5,10a14.52,14.52,0,0,1-1.82,6.49c-.19.35-5.08,7.54-6.17,4.61a.57.57,0,0,0-.68-.36c.69.74,1.41,1.45,2.14,2.15,1.83-.59,3.94-3.16,4.7-4.27C496.14,200,497.29,194.72,495.33,190.12Z"
                style="fill:#c47b6e" />
            <path d="M305.41,149.37l-8-5.72c-.57-.41-1.12.54-.55.94l8,5.72C305.43,150.73,306,149.78,305.41,149.37Z"
                style="fill:#512c29" />
            <path
                d="M479.56,140.34c-5.33,1.17-9.69,5.18-15.23,5.5-.7,0-.7,1.13,0,1.09,5.68-.33,10.08-4.33,15.52-5.53C480.53,141.24,480.24,140.19,479.56,140.34Z"
                style="fill:#512c29" />
            <path
                d="M491.51,210.2a66.43,66.43,0,0,1-18.22-31c-.78-3-1.22-6.13-2.27-9.07a31.15,31.15,0,0,0-3.93-7.21c-4-5.78-8.37-11.36-12.66-17-.42-.55-1.37,0-.94.55,4.28,5.59,8.63,11.17,12.65,16.95a29.5,29.5,0,0,1,4.56,9.36c.81,3.07,1.34,6.2,2.26,9.24A67.72,67.72,0,0,0,490.74,211C491.25,211.46,492,210.69,491.51,210.2Z"
                style="fill:#512c29" />
            <path
                d="M473.09,187.31a.55.55,0,0,0-1.09,0q.06,5.9.66,11.76c.07.69,1.16.7,1.09,0Q473.17,193.21,473.09,187.31Z"
                style="fill:#512c29" />
            <path
                d="M452.61,199.88a33.27,33.27,0,0,1-7.91-23.78c0-.71-1.05-.7-1.09,0a34.38,34.38,0,0,0,8.23,24.55C452.3,201.19,453.07,200.41,452.61,199.88Z"
                style="fill:#512c29" />
            <path
                d="M469.18,96A89.5,89.5,0,0,1,464.6,82c-.14-.59-1.05-.34-.91.25a85.31,85.31,0,0,0,4.12,12.84,22.71,22.71,0,0,1,2,6.48,34.36,34.36,0,0,1-.21,6.8c-.06.6.88.6.94,0C471,104,470.92,100.13,469.18,96Z"
                style="fill:#db6542" />
            <path
                d="M473.18,97.28a69.19,69.19,0,0,1-2.95-9.57c-.14-.59-1.05-.34-.91.25a49.68,49.68,0,0,0,2.33,8.13,18.5,18.5,0,0,1,1.24,9.81c-.07.6.88.6.94,0C474.13,102.94,474.3,100.09,473.18,97.28Z"
                style="fill:#db6542" />
            <path d="M476.09,99.83V106a.47.47,0,0,0,.94,0V99.83A.47.47,0,0,0,476.09,99.83Z" style="fill:#db6542" />
            <path
                d="M303.64,115.14a60.17,60.17,0,0,0-3.3-9.18c-1-2.23-2.62-4.6-1.29-7,.8-1.46,2-2.65,2.81-4.13.34-.62-.61-1.17-.94-.55-1.49,2.78-4.64,5.18-3.28,8.66,1.65,4.24,3.73,8.11,4.95,12.54A.54.54,0,0,0,303.64,115.14Z"
                style="fill:#db6542" />
            <path
                d="M311.05,111c-.42-.55-1.37,0-.94.55a13.86,13.86,0,0,1,2.74,11.06c-.12.68.93,1,1.06.29A14.88,14.88,0,0,0,311.05,111Z"
                style="fill:#db6542" />
            <path
                d="M478.49,212.58q-10.82-3.65-21.26-8.29c-.64-.28-1.2.66-.56,1q10.57,4.69,21.53,8.4C478.87,213.87,479.15,212.81,478.49,212.58Z"
                style="fill:#512c29" />
            <path
                d="M354.31,188a63,63,0,0,1-11.23-5.47,55.27,55.27,0,0,0-8.81-5c-.66-.27-.94.79-.3,1.05,3.68,1.5,6.8,3.89,10.18,5.93a63.94,63.94,0,0,0,9.87,4.56C354.67,189.34,355,188.28,354.31,188Z"
                style="fill:#512c29" />
            <path
                d="M447.4,223.66c1.82-3.14,4.32-4.91,8.23-3.34,2.84,1.15,4.62,3.6,6.5,5.76,1.15,1.32,2.31,2.95,4.33,2.81.71,0,.72-1.08,0-1-2,.13-3.89-3-5-4.2a18.73,18.73,0,0,0-3.31-3.16,9.49,9.49,0,0,0-6.23-1.81c-2.66.27-4.06,2-5.26,4a52.17,52.17,0,0,0-4.5,9c-1.73,4.9-2,10.89,3.72,13.56a12.88,12.88,0,0,0,7.44.92,20.8,20.8,0,0,0,4.67-1.33c2.36-.95,5-3,7.76-1.83.65.27,1.21-.62.56-.89a6.61,6.61,0,0,0-5.41.27c-2.86,1.15-5.48,2.61-8.66,2.88s-7-.66-8.84-3.28c-2.11-3-1.27-6.88-.16-10A50.24,50.24,0,0,1,447.4,223.66Z"
                style="fill:#c47b6e" />
            <path
                d="M424.08,159.88c.14-4,.84-9.27-3.48-11.39-.64-.32-1.21.64-.56,1,4.1,2,3,7.72,2.88,11.46-.06,1.71-.12,3.43-.19,5.14-.1,2.66-.48,4.5-2.85,6a31.33,31.33,0,0,0-5.92,4.75c-1.57,1.62-2.91,3.07-5.24,3.33-1.86.2-2-.12-3.35-1.22-.87-.68-1.73-1.4-2.6-2.1-.55-.44-1.35.34-.79.79,3.15,2.55,5.55,5.53,9.53,2.88a33.34,33.34,0,0,0,4.71-4.41c1.72-1.71,3.92-2.45,5.68-4C425,169.44,423.94,163.46,424.08,159.88Z"
                style="fill:#c47b6e" />
            <path
                d="M369.24,135.86a13,13,0,0,0-4.73,6.22c-1.3,3.42-1.06,7.1-2.15,10.55-1.6,5.06-6.5,6.48-11.29,6.75-2,.11-4.64.43-6.54-.4a5.09,5.09,0,0,1-2.81-6.63c.29-.65-.67-1.22-1-.56a6.18,6.18,0,0,0,2.05,7.52,8.21,8.21,0,0,0,5.23,1.27,29.1,29.1,0,0,0,8.16-.86,10.24,10.24,0,0,0,7.46-7.62c1.36-5.57.86-11.57,6.14-15.28C370.39,136.41,369.83,135.45,369.24,135.86Z"
                style="fill:#c47b6e" />
            <path
                d="M295.53,161.38a10.12,10.12,0,0,1-.64-5.33c.16-.94.46-1.85.55-2.8.41-4.56-4.15-8-7.19-10.7-.54-.48-1.33.31-.79.79,2.65,2.34,7,5.58,6.91,9.47,0,1.65-.8,3.21-.82,4.86a12.12,12.12,0,0,0,.91,4c1.53,4.64-.87,9.91-5.93,10.79-4.27.74-8.22.75-11.21-2.81-.46-.55-1.25.25-.79.79,3.06,3.65,6.78,3.85,11.29,3.24,4.21-.57,6.8-2.7,8-6.89A8.62,8.62,0,0,0,295.53,161.38Z"
                style="fill:#c47b6e" />
            <path
                d="M297.27,206.17a43.28,43.28,0,0,0-.45-7.23,7.93,7.93,0,0,0-2.38-3.77,11.84,11.84,0,0,1-2.31-3.95,6.52,6.52,0,0,0-1-1.93c-1.18-1.34-2.85-1.4-4.51-1.29a18.83,18.83,0,0,1-3.44,0,4.72,4.72,0,0,0-2.27,0c-1.69.57-3.29,2.56-4.34,3.87a21.41,21.41,0,0,0-4.6,12.18c0,.71,1.07.71,1.12,0a20.31,20.31,0,0,1,3.83-10.82c1.23-1.67,2.84-3.71,4.92-4,1.55-.21,3.2,0,4.78-.12a6.23,6.23,0,0,1,2.47.11c1.92.71,1.89,2.36,2.5,3.79a9.07,9.07,0,0,0,1.83,2.67,8.18,8.18,0,0,1,2.52,5.88c.1,1.93.18,3.87.28,5.8a.56.56,0,0,0,1,.28l.36-.68A.56.56,0,0,0,297.27,206.17Z"
                style="fill:#c47b6e" />
            <path
                d="M391.86,233.69c-2.36-3.44-1.23-7.88-4.44-11a28,28,0,0,0-5.52-3.66c-2.67-1.55-5.18-3.78-7.86-5.33-.61-.36.06,1.46.67,1.82,3.49,2,5.65,3.74,9.1,5.85a11.18,11.18,0,0,1,4.18,3.76c.9,1.64,1,3.52,1.33,5.29.61,2.91,4,5.63,3.07,8.6-1.41,4.48-7.34,5.14-11.57,5.51l.2,1.14c3.82-.34,8.25-.86,10.89-3.76S393.81,236.53,391.86,233.69Z"
                style="fill:#c47b6e" />
            <path
                d="M526.34,212c-.77-.42-1.06-.26-1.9-.25-3.87.07-3.92-2.18-5.8-4.55-1.41-1.79-3.46-2.74-5.28-4C506.1,198,512,187.79,516.72,183a.56.56,0,0,0-.79-.79c-4.33,4.37-9.94,13.28-5.77,19.4,2.06,3,6,3.86,8.08,6.9.91,1.33,1.47,2.9,2.88,3.83a3.89,3.89,0,0,0,1.7.68c.9.11,2.15-.56,3-.12C526.41,213.27,527,212.31,526.34,212Z"
                style="fill:#c47b6e" />
            <path
                d="M434.89,328.42a435,435,0,0,0-11.66,76.87c-.05.72,1.07.71,1.11,0A433.47,433.47,0,0,1,436,328.72C436.14,328,435.06,327.73,434.89,328.42Z"
                style="fill:#96251d" />
            <path
                d="M436.47,427.08q-2.72-10.5-4.57-21.19c-.12-.71-1.2-.41-1.08.29q1.86,10.69,4.57,21.2A.56.56,0,0,0,436.47,427.08Z"
                style="fill:#96251d" />
            <path
                d="M260.27,260.86c-.82-10.16-7-20.36-11.9-28.53-4.16-7-18.57-36.55-20.53-45.17-1.5-6.59-3.64-13.5-9.44-17.37-.32-.21-3-.75-3.07-.47-.19-.31,1,.72.76,1.13-2.14,3.92-3.83,8-5.62,12.06s-4.53,7.07-6.53,10.82c-3.65,6.83-4.1,14.78-4.49,22.35a.48.48,0,0,0,.54.51l.1.07c2.8,1.18.22,6.93,1.75,9.3,3.38,5.21,10.2,12.56,13.35,17.89,4.4,7.43,10.31,11.61,15.83,18.25a125.67,125.67,0,0,0,9.24,9.93c2.6,2.5,5.6,6.35,9.54,6.34,4.77,0,8.2-3.59,9.55-8A24,24,0,0,0,260.27,260.86Z"
                style="fill:#cfcfe8" />
            <path
                d="M163.72,447.41c14.46,1,28.84,5.81,43.41,2.82,2.67-.55,5.28-1.33,7.88-2.14-.62-2-5-15.27-6.66-19.94-7.53-21.48-13.61-45-21.94-66.42-6-15.53-11.35-32.22-8.83-46.36,0,0,.76,2.13.78,2.16.43.48.43-2.3,0-2.78-4.3-4.79-11.69-2.17-17.14-1.7a190.92,190.92,0,0,1-22.82.12c-15-.49-29.44.23-43.87,4.5a.45.45,0,0,0-.51.47c.08,3.37-1.22.86-2.63,3.79-1.73,3.55-4,12.82-5.44,16.5-2.93,7.66-5.2,59.35-5.28,77.1,0,8.42-.78,27.47-1.63,28.38,2.94,2.11,10,1.74,13.76,2.24l14.59,2c2.38.33,6.65,1.94,8.48-.28,2.27-2.75,3.45-7.32,4.59-10.64,3.12-9.1,5.91-18.33,8.71-27.53,1.77-5.81,5.42-18.5,7.88-24.25,1.85,12.37,20.39,43.56,21.78,47.81C160.33,437.82,163.37,447.38,163.72,447.41Z"
                style="fill:#e3dfcf" />
            <path
                d="M147.79,316.08a115.35,115.35,0,0,1-6.71,39.42c-.23.65.8.92,1,.28a116,116,0,0,0,6.74-39.7A.53.53,0,0,0,147.79,316.08Z"
                style="fill:#c2a28d" />
            <path
                d="M154.29,121.69c-3.29-3-8.24-3.19-12.15-1.4-2.4,1.11-7.71,4.54-6.15,7.77-.84,2.87,4.24,6,5.49,8.06,3.81,6.37,4.84,7.93,5.74,15.25.08.6,5.11,4.5,5.32,3.88l.78-1,.25.27a.55.55,0,0,0,.92-.24,114.68,114.68,0,0,0,3.73-18.9C158.66,130.56,158.1,125.12,154.29,121.69Z"
                style="fill:#ad5849" />
            <path
                d="M218.44,170.42a3.32,3.32,0,0,0-1.21-.8c-8.58-3.46-18.22-4.14-27.38-4.62-10.65-.57-21.39-.56-32-.17a123.7,123.7,0,0,0-30.19,4.66c-7.71,2.25-20.75,5.68-26.26,12.2-3.37,4-3.33,12.39-3.67,17.53-.41,6.14-.47,12.3-.54,18.45-.08,8.11,1.7,19.66-1.16,27.42-11.09,30.09-13.43,103-13.43,103,4.87,0,32.86-8.11,41.34-9.29q5.37-.73,10.74-1.39c2.08-.26,5-.11,6.79-1.54a10.26,10.26,0,0,0,2.05-3,44.17,44.17,0,0,1,3.08-4.66c.84-1.1,1.73-2.14,2.66-3.15a70.25,70.25,0,0,0-1.28,9,.49.49,0,0,0,.61.48c5.5-1.31,11-2.75,16.51-3.92,5.22-1.1,10.48-.76,15.65-2.26a.44.44,0,0,0,.32-.54.49.49,0,0,0,.46-.47,90,90,0,0,1,6.08-26.59c5.34-13.81,10.64-27.49,11.55-42.52a107.06,107.06,0,0,1,5.8-29.37c3.45-9.71,8.34-18.21,11.09-28.24a100.24,100.24,0,0,0,3.28-16.38,50.26,50.26,0,0,0,.19-8.41C219.34,174,219.7,171.77,218.44,170.42Z"
                style="fill:#cfcfe8" />
            <path
                d="M179.94,156.75a36.47,36.47,0,0,0-5.77-10.13c-2.93-3.46-6.82-5.76-10.75-7.92-3.19-1.76-7.61-5.07-11.51-4.29-1.19.24-1.51-1.15-2.2-.14-.13.18,0,0-.14.46a54.18,54.18,0,0,1,0,6.6c-.9,10.13-4.84,20.63-9.09,29.9a.65.65,0,0,0,.39.87c.52,1.85,2.14,2.91,4,3.69,3.83,1.6,4.83,7.65,8.91,8.22,5.16.72,14.23,1.39,17.49-3.33.2,0,2.07-5,2.17-5.28q3.6-8.91,6.88-18A.51.51,0,0,0,179.94,156.75Z"
                style="fill:#ed8b6e" />
            <path
                d="M201.84,120.42c-.51-2.38-2.06-3.7-3.32-5.65-1.93-3-.05-6.35-.31-9.68a27.34,27.34,0,0,0-2.14-7.93c-1.13-2.81-2.8-6.68-6-6.78a.53.53,0,0,0-.79,0l-.1.1a4.58,4.58,0,0,0-.75.19.56.56,0,0,0-.29.85c-2.85,2.88-5.47,5.94-5,10.29.55,5.66,3,11.23,4.13,16.8a58.17,58.17,0,0,1,1.24,9.66c.08,2.24-.14,4.59.59,6.75.51,1.51,4.4,1.55,4.38,1.47,3.31-2.73,6.6-5.77,8-9.93A11.83,11.83,0,0,0,201.84,120.42Z"
                style="fill:#ad5849" />
            <path
                d="M173.72,196.05c.16-.26.34-.52.52-.79,1.09-2.79,2.07-5.62,3-8.46,2.46-7.66,4.36-14.11,5-22.12-1.2-2-2.88-5-4.26-6.93.64-.12.36-1.12-.31-1a1,1,0,0,0-.3.08c-.14-.24-.29-.47-.41-.72-.31-.62-1.23-.08-.92.54a10.19,10.19,0,0,0,.52.91,8.24,8.24,0,0,0-.4,1.61A47,47,0,0,1,173,167.5q-3.43,7.89-6.88,15.76a.58.58,0,0,0,.59.8c1.75,4,3.14,8.84,6.13,12.1A.54.54,0,0,0,173.72,196.05Z"
                style="fill:#cfcfe8" />
            <path
                d="M193.51,108.49c-1-6.62-3.15-13.52-8.42-17-6.43-4.22-15.65-5.85-23.22-5.27-7,.54-13.87,3-16.76,10A42.48,42.48,0,0,0,142.62,107a40.92,40.92,0,0,0-.1,12.88c.91,4.88,5.33,10.34,7.25,14.89,2.15,5.07,1.56,9.86,4.54,14.5,3.35,5.23,9.36,8.24,15.29,9.52,4.66,1,10.63,3.57,14.76-.09a14.91,14.91,0,0,0,3.72-6C193.59,138.45,195.82,123.69,193.51,108.49Z"
                style="fill:#ed8b6e" />
            <path
                d="M166.11,183.89c-.06-1.39-17.38-31.51-18.86-32.31a.44.44,0,0,0-.55.09l-14.34,14.81a.53.53,0,0,0-.25.19H132l0,.07a.43.43,0,0,0,0,.45c5.44,9.73,11.73,18.95,17.9,28.22a.51.51,0,0,0,.93-.24c1.45-1.43,4.14-2.78,5.59-4.21S166.13,184.22,166.11,183.89Z"
                style="fill:#cfcfe8" />
            <path
                d="M51.49,223.67c-.06-3-.15-6.08-.24-9.1-.08-2.39,0-5.16-1.42-7.19-1.6-2.22-3.94-3.93-5.67-6a47.34,47.34,0,0,1-5.37-8.54,1,1,0,0,0-.24-.33,1.88,1.88,0,0,0-.24-.14c-.07-.06-.12-.14-.18-.19-.72-.62-2.08.7-2.46,1.22a6.5,6.5,0,0,0-1.13,4.2A9,9,0,0,0,36,200.76a44.09,44.09,0,0,1,2.43,4,3.35,3.35,0,0,1-.18,3l-.13.06c-3.49,2.62-7.55.81-11-1a65,65,0,0,0-9.44-4.15,31,31,0,0,0-8.79-1.6,25.23,25.23,0,0,0-4.43.27c-1.07.16-2.46.09-3.4.77A2.78,2.78,0,0,0,0,204.55c.11,1,1,1.52,1.78,2L4.49,208c1.93,1.05,2.33,2.83,2.94,4.73,1,3.11,5.55,3.12,8.09,4.09a83.11,83.11,0,0,1,13,6.35c.44.26.87.53,1.3.8,2.23,1.39,4.31,3.14,6.65,4.32a11.83,11.83,0,0,0,6.46,1,15.73,15.73,0,0,0,5.86-1.31,4.34,4.34,0,0,0,2.65-3.6C51.49,224.12,51.49,223.89,51.49,223.67Z"
                style="fill:#ed8b6e" />
            <path
                d="M333.35,194.14a1.29,1.29,0,0,0-.54-.64,14.08,14.08,0,0,0-4.25-1.66,15.25,15.25,0,0,0-4.86.13,30.69,30.69,0,0,0-8.11,2.69c-2.46,1.11-4.84,2.44-7.35,3.44-.82.33-6.38,1.66-3.58-.91a5.45,5.45,0,0,1,1.76-.86,7.92,7.92,0,0,0,4.33-3.83c.81-2-.29-4-2.58-3.1-3.52,1.4-6.41,4.09-10.09,5.36-4,1.38-8.65,3.21-12,6.63,0,0-4.22,7.31-5.45,12-.16.59,0,5.71.91.25a2.52,2.52,0,0,1,.17-.57c2.7,2.93,6.55,4.39,10.31,5.44l.21.05-2.38,1.23c-.54.28-.06,1.1.48.82l3.66-1.89c1.22-.06,2.41-.47,2.79-1.44l17-8.81c4.12-2.13,8.28-4.22,12.18-6.75a33.19,33.19,0,0,0,5.29-4.16C332.05,196.83,333.78,195.29,333.35,194.14Z"
                style="fill:#ed8b6e" />
            <path
                d="M114.77,205.06c1.14-5.4,1.85-11.34-.28-16.61a14.6,14.6,0,0,0-4.43-6c-.92-.71-6-4-7.07-3.06-6.88,6.07-8.31,5.82-11.78,14.37-1.88,4.63-6.87,17.46-8.53,22.17a87.46,87.46,0,0,1-5.89,12.92c-4.57,8.33-10.1,16.07-15.4,23.95-2.68,4-5.31,8-7.73,12.17-2.17,3.73-5.14,7.57-4.27,12.09a32.52,32.52,0,0,0,4.08,10.77c3.52,5.75,8.63,11.48,15.93,8,3.69-1.77,15.11-11.1,17.93-13.9,15-14.95,20.07-18.5,17.5-17.8-13,3.54-1.73-9.87,7-20.07a.48.48,0,0,0,.54-.25c3.06-5.7,1.19-12.28.65-18.31C112.39,218.67,113.38,211.7,114.77,205.06Z"
                style="fill:#cfcfe8" />
            <path
                d="M294.17,213c-5.82-.33-11.69-2.28-17.51-1.58a28.66,28.66,0,0,0-2.82,5.23c-1.95,4.32-5.23,7.9-8.16,11.58-6.23,7.86-13.54,13.1-19.78,21,0,0-.4.68-.4.66.09-.68.5,1.23.42,1.9-.24,1.87-2.32,3.11-2.71,5.09a36.2,36.2,0,0,0-.33,7.21,34.53,34.53,0,0,0,.44,5.33,7.84,7.84,0,0,1,.79,1.37l.44.53c2.09,1.65,2.72,6.11,7.7,6.34,5.38-1.52,8.36-4.29,12.68-8.19,5.27-4.75,9.39-10.64,13.56-16.34L294,232c4.2-5.76,8.17-12,13.1-17.28a1.07,1.07,0,0,0-.82-1.8C302.21,213,298.19,213.24,294.17,213Z"
                style="fill:#cfcfe8" />
            <path
                d="M77.07,274c-.13-1.77-2.31-4-3.23-5.44q-2.2-3.51-4.28-7.11c-3.32-5.77-6.62-11.6-8.58-18s-3.53-12.89-6.27-19c-.19-.43-.39-.86-.59-1.28a84,84,0,0,1-16.85-.36c-4.4-.63-11.91-3.73-16.3-1.3,6.14,17.12,12,34.6,20.56,50.61,3.94,7.35,8.65,16.34,16,20.79,3.1,1.87,7.11,5.43,10.39,3.43s5.5-7.81,7.09-11.19A22.31,22.31,0,0,0,77.07,274Z"
                style="fill:#cfcfe8" />
            <path
                d="M185.43,87c-6-4.73-13.27-6.79-20.67-7.27-6.84-.44-13.15,1.07-17.64,6.79-2.25,2.87-3.43,6.5-5.94,9.16s-6.25,4.19-8.28,7.4c-3.52,5.58-.53,14.94,3.15,20.23,2.5,4-1.75-1.74-1.37-1.78a.52.52,0,0,0,.62-.39,17.63,17.63,0,0,1,8.2-3.71,15.84,15.84,0,0,0,6.35-2.36c4.79-3.24,10.37-4.72,15.34-7.68a99.89,99.89,0,0,0,13.09-9.35c3.27-2.73,6.62-5.68,7.25-10.2A.62.62,0,0,0,185.43,87Z"
                style="fill:#ad5849" />
            <path
                d="M187.54,84.68a16.19,16.19,0,0,0-10-4.26c-3.19-.3-7.61-.5-9.81,2.35C166.56,84.28,166,86.3,165.1,88a18.12,18.12,0,0,1-4.76,6.19c-4,3.08-9.86,2.74-14.44,4.67a14.82,14.82,0,0,0-8.1,7.37c-.75,1.69-.54,3.2-.88,4.89a5,5,0,0,1-2.31,2.66c-2.58,4.57-5.18,9.39-4.34,14.8.54,3.43,4.17,3.72,7.27,2.61.7-1-.17-1.13.87-1.73,5.4-3.07,12.1-1.83,18-1.66a11.34,11.34,0,0,0,4-.44c3.1-1,5.15-4.81,6.28-7.7,1.41-3.61.68-8.72,3.12-11.74,4.46-5.54,14.83-6.77,18.44.29.48.93.93-.17.91-.65v-.11a2.08,2.08,0,0,1,.18-.6C192.53,99.23,193.23,91.21,187.54,84.68Z"
                style="fill:#ad5849" />
            <path
                d="M201.57,116.56a13.25,13.25,0,0,1-.67-8.27c.55-3.15.54-6-1.53-8.6-2.2-2.79-5.59-4.11-8.8-5.36a.43.43,0,0,0-.56.19.48.48,0,0,0-.22.29c-.74,2.61-1.39,5.25-1.89,7.93a11.87,11.87,0,0,0,.3,5.45c.49,1.16,8.3,6.85,6.84,13.79-1.12,1.67,2.15,4.35,2.11,4.78s-.16.67-.26,1c-.22.68.84,1,1.06.3.15-.46.27-.91.38-1.36.38-.33,2-1.23,2.33-1.55a7.7,7.7,0,0,0,1.66-4.15A9.18,9.18,0,0,0,201.57,116.56Z"
                style="fill:#ad5849" />
            <path
                d="M169.36,207.65c-.78-5.12-1.73-10.22-2.67-15.31-.13-.68-1.16-.39-1,.28.82,4.42,1.64,8.83,2.35,13.27s1.72,9.35,1.05,14c-.59,4-2.49,7.71-4,11.45-1.62,3.94-3.07,8-4.35,12-5,15.84-6.31,31.9-8,48.31-1,9.56-2.5,19.08-6,28.07-.26.64.78.91,1,.28,6.16-15.7,6.05-32.68,8.11-49.18a154.55,154.55,0,0,1,5.63-26.25q1.88-6.12,4.27-12.06c1.51-3.76,3.46-7.46,4.26-11.47C170.83,216.62,170,212.05,169.36,207.65Z"
                style="fill:#9797cf" />
            <path
                d="M151.68,198.17q-9.69-14.28-18.55-29.1a.53.53,0,0,0-.92.54q8.85,14.82,18.55,29.1C151.14,199.27,152.07,198.74,151.68,198.17Z"
                style="fill:#9797cf" />
            <path
                d="M162.57,187.8A114.76,114.76,0,0,0,151,198c-.48.49.27,1.25.76.76a112,112,0,0,1,11.36-10.07C163.64,188.3,163.11,187.38,162.57,187.8Z"
                style="fill:#9797cf" />
            <path
                d="M181.54,173.75a86.53,86.53,0,0,1-5,23.42l-9.27-12c-.41-.53-1.34,0-.92.54l9.78,12.69a.59.59,0,0,0,.45.22.58.58,0,0,0,.71-.34,87.57,87.57,0,0,0,5.32-24.51C182.65,173.07,181.58,173.07,181.54,173.75Z"
                style="fill:#9797cf" />
            <path
                d="M110.81,182.32c-.24-.64-1.27-.36-1,.28a109.16,109.16,0,0,1,5.91,50.75c-.08.68,1,.68,1.07,0A109.81,109.81,0,0,0,110.81,182.32Z"
                style="fill:#9797cf" />
            <path
                d="M218.09,179.9a76.65,76.65,0,0,1-14.33,45.45c-.4.56.52,1.09.92.54a77.64,77.64,0,0,0,14.48-46A.54.54,0,0,0,218.09,179.9Z"
                style="fill:#9797cf" />
            <path
                d="M225.12,218.24c-2.51,1.36-5.05,2.67-7.63,3.91-1,.47-8.73,3.42-8.72,4a.54.54,0,0,0-1.07,0,2.26,2.26,0,0,1,0,.26.56.56,0,0,0,.39.51c1.75.7,5.67-1.87,7.18-2.57,3.52-1.61,7-3.35,10.38-5.18C226.27,218.84,225.73,217.92,225.12,218.24Z"
                style="fill:#9797cf" />
            <path
                d="M252.42,241.55,252,242s0,.07-.07.1l-13,14.06c-.47.51.28,1.27.75.76q6.77-7.32,13.54-14.65C253.64,241.8,252.91,241.06,252.42,241.55Z"
                style="fill:#9797cf" />
            <path
                d="M248.84,248.2c-3.45,6.94-3.6,14.64-3.44,22.23a.54.54,0,0,0,1.07,0c-.16-7.38-.07-14.94,3.3-21.69C250.07,248.13,249.15,247.59,248.84,248.2Z"
                style="fill:#9797cf" />
            <path
                d="M161.53,214.27c-.24-1.07-1.15-1.17-2-.54a3.52,3.52,0,0,0-1.25,2.09,6.37,6.37,0,0,0,.06,2.46.92.92,0,0,0,.22.49c.68.63,1.89-.87,2.2-1.32a4.36,4.36,0,0,0,.77-3.07A.43.43,0,0,1,161.53,214.27Z"
                style="fill:#9797cf" />
            <path
                d="M156.07,239.52c-.23-1.07-1.15-1.16-2-.53a3.49,3.49,0,0,0-1.25,2.08,6.05,6.05,0,0,0,.06,2.47.85.85,0,0,0,.22.49c.67.62,1.89-.88,2.2-1.33a4.34,4.34,0,0,0,.76-3.06A.5.5,0,0,0,156.07,239.52Z"
                style="fill:#9797cf" />
            <path
                d="M150.35,267c-.23-1.07-1.15-1.17-2-.54a3.52,3.52,0,0,0-1.25,2.09,6,6,0,0,0,.06,2.46.85.85,0,0,0,.22.49c.68.63,1.89-.88,2.2-1.32a4.3,4.3,0,0,0,.76-3.07A.43.43,0,0,0,150.35,267Z"
                style="fill:#9797cf" />
            <path
                d="M146.55,292.9c-.23-1.07-1.15-1.17-2-.54a3.55,3.55,0,0,0-1.25,2.09,6,6,0,0,0,.06,2.46.92.92,0,0,0,.22.49c.68.63,1.89-.87,2.2-1.32a4.36,4.36,0,0,0,.77-3.07Z"
                style="fill:#9797cf" />
            <path
                d="M44,232.21a52.43,52.43,0,0,1-14.5-2.32c-.66-.2-.94.83-.28,1A53.64,53.64,0,0,0,44,233.28.54.54,0,0,0,44,232.21Z"
                style="fill:#9797cf" />
            <path d="M295.32,221.4l-19.62-1.81c-.68-.07-.68,1,0,1.06l19.62,1.82C296,222.53,296,221.46,295.32,221.4Z"
                style="fill:#9797cf" />
            <path
                d="M75.11,272.79a119.81,119.81,0,0,0-9.63-20.39.53.53,0,0,0-.92.54,118.7,118.7,0,0,1,9.52,20.13C74.31,273.71,75.34,273.44,75.11,272.79Z"
                style="fill:#9797cf" />
            <path
                d="M78.44,267.73a62.41,62.41,0,0,0-7.59-9.7c-.48-.5-1.23.26-.76.76a60.28,60.28,0,0,1,7.43,9.48C77.89,268.85,78.81,268.31,78.44,267.73Z"
                style="fill:#9797cf" />
            <path
                d="M111.92,248.77q-9.53,10.08-18.57,20.6c-.44.52.31,1.28.76.76q9-10.53,18.57-20.6C113.15,249,112.4,248.27,111.92,248.77Z"
                style="fill:#9797cf" />
            <path
                d="M174.79,160c-4.63-2-10.36-3.57-14-7.15a49,49,0,0,1-8.8-12.58c-.33-.63-1.28-.07-.95.56a50.74,50.74,0,0,0,9,12.8c3.75,3.69,9.53,5.27,14.26,7.32C174.88,161.23,175.44,160.28,174.79,160Z"
                style="fill:#db6542" />
            <path
                d="M26.89,216.57q-8.54-3.72-17.17-7.22c-.69-.28-1,.83-.33,1.11Q18,214,26.57,217.68C27.25,218,27.56,216.87,26.89,216.57Z"
                style="fill:#db6542" />
            <path d="M22,210.77,6.56,204.55c-.69-.28-1,.83-.33,1.11l15.41,6.21C22.33,212.15,22.65,211,22,210.77Z"
                style="fill:#db6542" />
            <path
                d="M26.46,211.39q-6.8-3.75-13.68-7.35c-.65-.34-1.25.65-.59,1q6.87,3.6,13.67,7.34C26.51,212.73,27.11,211.75,26.46,211.39Z"
                style="fill:#db6542" />
            <path
                d="M331.74,194.21a88.61,88.61,0,0,0-14.38,7.2c-2.56,1.52-5.12,1.73-8,2.24a21.05,21.05,0,0,0-7.07,2.67.53.53,0,0,0,.53.92,22.1,22.1,0,0,1,8.5-2.8,15.68,15.68,0,0,0,5.81-1.67c4.94-2.71,9.55-5.54,14.87-7.53C332.66,195,332.39,194,331.74,194.21Z"
                style="fill:#db6542" />
            <path
                d="M158.39,118.91a14.48,14.48,0,0,1-7.87,2.73c-.7,0-.71,1.13,0,1.1a15.53,15.53,0,0,0,8.42-2.88C159.51,119.45,159,118.5,158.39,118.91Z"
                style="fill:#662f2b" />
            <path
                d="M327.63,194a42.7,42.7,0,0,0-12,6c-.55.39,0,1.32.54.92a41.59,41.59,0,0,1,11.76-5.89C328.57,194.86,328.29,193.83,327.63,194Z"
                style="fill:#db6542" />
            <path
                d="M320.8,195A44,44,0,0,0,309,199.69a.53.53,0,0,0,.54.92,43.16,43.16,0,0,1,11.52-4.54C321.75,195.91,321.47,194.88,320.8,195Z"
                style="fill:#db6542" />
            <path
                d="M155.72,131.84c-.68-4.56-2.81-11.33-8-12.51-7.48-1.72-3.06,9.89-1.6,12.72,1.1,2.14,3.14,5.45,6,5.19C154.91,137,156.05,134,155.72,131.84Z"
                style="fill:#ed8b6e" />
            <path
                d="M152.06,127a.56.56,0,0,0-.11-.5,3.58,3.58,0,0,0-.27-.29c-1.16-2.26-3-4.14-5.37-4.59-.69-.12-1,.94-.29,1.07a6,6,0,0,1,3.56,2.27,4.56,4.56,0,0,0-2.56.08c-.67.22-.38,1.28.29,1.06a3.41,3.41,0,0,1,3.47.75,13.26,13.26,0,0,1,1.38,5.44.55.55,0,0,0,1.1,0A14.26,14.26,0,0,0,152.06,127Z"
                style="fill:#db6542" />
            <path
                d="M186.38,134c0-2-.14-4-.31-6-.06-.7-1.16-.71-1.1,0,.19,2.3.31,4.59.31,6.89,0,.87.3,2.67-.07,3.45-.65,1.36-2.43.73-3.56.54-.69-.12-1,.94-.29,1.06,1.48.25,4.27,1.14,4.9-.66C186.74,137.87,186.39,135.49,186.38,134Z"
                style="fill:#db6542" />
            <path
                d="M175.64,123.58a1.21,1.21,0,0,0-2.12-.35,5.31,5.31,0,0,0-.79,2.84,6.31,6.31,0,0,0,.54,3.51,1.06,1.06,0,0,0,2,0C176,128,176.39,125.2,175.64,123.58Z"
                style="fill:#72352a" />
            <path
                d="M192,125.57c0-.35-.29-1.38-.66-1.59-1.74-1-2,2.33-2.06,3.42a7.79,7.79,0,0,0,.3,3c.46,1.29,1.49.47,1.91-.35C192.1,128.88,192.07,127.86,192,125.57Z"
                style="fill:#72352a" />
            <path
                d="M184.74,144.94c-5.08.38-5.53-.28-7.62-.48a3,3,0,0,0-2.34.41c-.42.27-2.77,2-1.9,2.94a.75.75,0,0,0,.33.19c2.9,1,5.84,2.28,8.84,2.28a2.62,2.62,0,0,0,2.18-1.68,8.43,8.43,0,0,0,.72-2C185.05,146.07,185.15,144.9,184.74,144.94Z"
                style="fill:#efe1df" />
            <path
                d="M195.43,118.19c-.07-.52-.72-.57-1.08-.36a2.65,2.65,0,0,0-.58.48,15.25,15.25,0,0,1-3.24,2.41c-.81.45-2.08.6-2.41,1.69a.69.69,0,0,0,.14.59C190.4,125.65,195.84,121.42,195.43,118.19Z"
                style="fill:#ad5849" />
            <path
                d="M181.85,120.89c-.47-.56-2.38-.77-2.95-.92a19.56,19.56,0,0,1-3.53-1.11,34.7,34.7,0,0,0-3.24-1.44c-.67-.22-2.9-.84-3.22.23a.8.8,0,0,0,.25.68c1.53,1.91,3.32,3.76,5.78,4.36,1.95.47,6.05,1.62,6.95-1a.92.92,0,0,0,0-.61A.55.55,0,0,0,181.85,120.89Z"
                style="fill:#ad5849" />
            <path
                d="M98,346.71q-5.91,46.68-9.1,93.64c0,.69,1,.69,1.07,0q3.18-46.94,9.1-93.64C99.11,346,98,346,98,346.71Z"
                style="fill:#c2a28d" />
            <path
                d="M158.39,360.25l-21.81,13.38c-.58.35-.05,1.28.54.92l21.81-13.38C159.51,360.81,159,359.88,158.39,360.25Z"
                style="fill:#c2a28d" />
            <path
                d="M138.28,377.94q-2.62,8.49-5.26,17c-.2.66.83.94,1,.28l5.26-17C139.52,377.56,138.49,377.28,138.28,377.94Z"
                style="fill:#c2a28d" />
            <path
                d="M190.67,96.48a12.19,12.19,0,0,0-8.86-7.36c-.7-.15-1,.92-.3,1.06a11,11,0,0,1,6.69,4.2c1.7,2.25,4.17,8.59-.37,9.72a.55.55,0,0,0,.29,1.06C192,104.19,191.89,99.56,190.67,96.48Z"
                style="fill:#662f2b" />
            <path
                d="M184.87,100.23c-5.05-7-15.84.54-20.85,3.91-.58.39,0,1.34.56,1,4.45-3,14.91-10.48,19.34-4.3C184.33,101.36,185.29,100.81,184.87,100.23Z"
                style="fill:#662f2b" />
            <path
                d="M167.05,84.08c-2.55,1.73-3.58,4.42-5,7-1.19,2.21-2.54,3.84-5,4.65-1.95.64-4,.71-6,1.26-7.71,2.15-13,8.61-16.55,15.43-.32.63.63,1.19,1,.56,4.25-8.13,10.14-13.92,19.35-15.62,2.91-.54,5.35-1.42,7.12-3.9,2-2.8,2.72-6.44,5.71-8.47C168.19,84.63,167.64,83.68,167.05,84.08Z"
                style="fill:#662f2b" />
            <path
                d="M177.56,442.74q-15.48-30.42-28.1-62.17c-.25-.63-1.28-.35-1,.28q12.66,31.84,28.2,62.43C176.94,443.89,177.87,443.35,177.56,442.74Z"
                style="fill:#c2a28d" />
            <path
                d="M168.11,96.85A101.45,101.45,0,0,0,157.59,105c-.51.46.24,1.21.76.76a99.75,99.75,0,0,1,10.3-8C169.22,97.39,168.68,96.46,168.11,96.85Z"
                style="fill:#662f2b" />
            <path
                d="M261.79,69.76l-42.55,35.31c-.54.44.25,1.19.79.74l42.55-35.3C263.12,70.06,262.33,69.31,261.79,69.76Z"
                style="fill:#ad5849" />
            <path d="M269.09,101.8l-28.89,9.53c-.67.23-.38,1.25.3,1l28.88-9.53C270.05,102.6,269.76,101.58,269.09,101.8Z"
                style="fill:#ad5849" />
            <path d="M262.52,118.6l-20,1.67c-.71.06-.71,1.12,0,1.06l20-1.68C263.23,119.6,263.23,118.54,262.52,118.6Z"
                style="fill:#ad5849" />
            <path d="M340.36.23l31,43.88c.4.56-.51,1.1-.9.55L339.46.78C339.06.22,340-.32,340.36.23Z"
                style="fill:#ad5849" />
            <path d="M326,29.72,350.5,45.49c.57.36.06,1.29-.51.92L325.52,30.65C325,30.28,325.46,29.35,326,29.72Z"
                style="fill:#ad5849" />
            <path d="M328.14,47.52l18.11,6.13c.64.22.4,1.25-.25,1l-18.11-6.13C327.25,48.33,327.5,47.3,328.14,47.52Z"
                style="fill:#ad5849" />
        </g>
    </g>
</svg>