<svg xmlns="http://www.w3.org/2000/svg" xmlns:xlink="http://www.w3.org/1999/xlink" viewBox="0 0 4762.44 2771.08"><defs><clipPath id="a4408ed5-a24c-42a5-af7b-39eeab672f14" transform="translate(381.75 351.49)"><rect width="4000" height="2000" style="fill:none"/></clipPath></defs><g id="b018ddcf-c16c-4250-8155-9afbe5046020" data-name="Layer 2"><rect x="381.75" y="351.49" width="4000" height="2000" style="fill:#8fd1dc"/></g><g id="e7045a0e-84ec-4c55-9652-93ea8f8a4102" data-name="Layer 4"><g style="clip-path:url(#a4408ed5-a24c-42a5-af7b-39eeab672f14)"><polygon points="1961.66 433.2 1914.95 460.16 1914.95 514.09 1961.66 541.05 2008.36 514.09 2008.36 460.16 1961.66 433.2" style="fill:#cde6eb"/><polygon points="4233.96 1513.46 4199.01 1533.64 4199.01 1573.99 4233.96 1594.17 4268.9 1573.99 4268.9 1533.64 4233.96 1513.46" style="fill:#cde6eb"/><g style="opacity:0.5"><rect x="972.84" y="-336.06" width="12" height="820.26" transform="translate(705.08 1156.25) rotate(-52.43)" style="fill:#fff"/></g><g style="opacity:0.5"><rect x="2167.1" y="457.99" width="494.44" height="12" transform="translate(378.84 1264.08) rotate(-21.39)" style="fill:#fff"/></g><path d="M254.16,1047.35,144.57,984.07V857.52l109.59-63.27,109.6,63.27V984.07Zm-97.59-70.2,97.59,56.34,97.6-56.34V864.45l-97.6-56.35-97.59,56.35Z" transform="translate(381.75 351.49)" style="fill:#fff"/><polygon points="637.12 1281 528.19 1219.51 534.09 1209.06 637.05 1267.18 737.68 1209.08 743.68 1219.48 637.12 1281" style="fill:#fff"/><rect x="631.09" y="1274.09" width="12" height="118.8" style="fill:#fff"/><g style="opacity:0.5"><path d="M3947.73,1888.55l-649.1-362.78,5.86-10.47,635.45,355.15L4252.18,639.2C3942.53,595,3368.52,513.4,3335.52,510.26c-34.85,21.7-611.07,551.79-832.24,756.14l-.86.79-1.09.42L1485.61,1652.13l-2.2-5.43L1030.74,532.45,361.62,868.16l-5.38-10.73L1037,515.9l455.35,1120.86L2496,1256.8c14.72-13.61,213.31-197,411.13-378.14,120.16-110,216.53-197.67,286.44-260.54,41.53-37.35,74.06-66.25,96.71-85.92,39.19-34,41-34,44.13-34,15,0,832.86,116.78,926.07,130.09l6.61,1-1.64,6.47Z" transform="translate(381.75 351.49)" style="fill:#fff"/></g><path d="M1767.86,1140.7l-109.6-63.27V950.88l109.6-63.28,109.59,63.28v126.55Zm-97.6-70.2,97.6,56.35,97.59-56.35V957.81l-97.59-56.35-97.6,56.35Z" transform="translate(381.75 351.49)" style="fill:#fff"/><polygon points="2150.82 1374.36 2041.89 1312.86 2047.79 1302.41 2150.75 1360.54 2251.38 1302.44 2257.38 1312.83 2150.82 1374.36" style="fill:#fff"/><rect x="2144.78" y="1367.45" width="12" height="118.8" style="fill:#fff"/><path d="M2748.09,440.54,2638.5,377.26V250.71l109.59-63.27,109.6,63.27V377.26Zm-97.59-70.21,97.59,56.35,97.6-56.35V257.64l-97.6-56.35-97.59,56.35Z" transform="translate(381.75 351.49)" style="fill:#fff"/><polygon points="3131.05 674.19 3022.12 612.69 3028.02 602.24 3130.99 660.37 3231.62 602.27 3237.62 612.66 3131.05 674.19" style="fill:#fff"/><rect x="3125.02" y="667.28" width="12" height="118.8" style="fill:#fff"/><path d="M3198,1587.27,3088.37,1524V1397.45l109.6-63.28,109.59,63.28V1524Zm-97.6-70.2,97.6,56.35,97.59-56.35V1404.38L3198,1348l-97.6,56.35Z" transform="translate(381.75 351.49)" style="fill:#fff"/><polygon points="3580.93 1820.93 3471.99 1759.43 3477.89 1748.98 3580.86 1807.11 3681.49 1749.01 3687.49 1759.4 3580.93 1820.93" style="fill:#fff"/><rect x="3574.89" y="1814.02" width="12" height="118.8" style="fill:#fff"/><g style="opacity:0.5"><polygon points="3585.58 1693.85 3573.85 1691.33 3694.54 1127.96 3229.54 729.84 3237.34 720.73 3707.77 1123.49 3585.58 1693.85" style="fill:#fff"/></g><g style="opacity:0.5"><rect x="292.68" y="1035.61" width="12" height="552.51" transform="translate(172 417.68) rotate(-9.38)" style="fill:#fff"/></g><g style="opacity:0.5"><rect x="-381.75" y="986.45" width="532.58" height="12" transform="translate(337.54 347.34) rotate(-2.55)" style="fill:#fff"/></g><g style="opacity:0.5"><polygon points="1833.55 2126.56 1169.55 1870.02 1169.55 755.17 483.75 561.36 487.01 549.81 1181.55 746.09 1181.55 1861.79 1837.87 2115.37 1833.55 2126.56" style="fill:#fff"/></g><g style="opacity:0.2"><rect x="402.77" y="1612.44" width="417.91" height="9" transform="translate(-332.95 859.69) rotate(-29.39)" style="fill:#fff"/></g><g style="opacity:0.2"><rect x="657.6" y="733.89" width="9" height="622.15" transform="translate(-115.47 1828.06) rotate(-78.06)" style="fill:#fff"/></g><g style="opacity:0.2"><rect x="1674.4" y="168.2" width="9" height="737.23" transform="translate(301.82 772.54) rotate(-13.97)" style="fill:#fff"/></g><g style="opacity:0.2"><rect x="2246.32" y="821.86" width="9" height="822.97" transform="translate(623.71 3182.26) rotate(-67.21)" style="fill:#fff"/></g><g style="opacity:0.2"><polygon points="2252.48 1316.05 2244.36 1312.16 2669.74 424.55 3027.22 596.54 3023.32 604.65 2673.96 436.56 2252.48 1316.05" style="fill:#fff"/></g><g style="opacity:0.2"><rect x="372.07" y="1811.06" width="606" height="9" transform="translate(-876.85 2053.64) rotate(-66.25)" style="fill:#fff"/></g><g style="opacity:0.5"><rect x="2495.21" y="-84.34" width="546.95" height="12" transform="translate(3020.15 3039.88) rotate(-85.68)" style="fill:#fff"/></g><g style="opacity:0.2"><rect x="1341.84" y="1232.18" width="404.54" height="9" transform="translate(13.81 2095.81) rotate(-53.56)" style="fill:#fff"/></g><g style="opacity:0.2"><polygon points="2785.25 2637.38 2776.63 2634.8 2952.33 2047.44 2954.51 2046.69 3474.66 1867.77 3477.58 1876.28 2959.63 2054.45 2785.25 2637.38" style="fill:#fff"/></g><g style="opacity:0.2"><polygon points="3987.94 716.01 3986.86 711.71 3868.3 237.45 3238.33 609.47 3233.76 601.72 3874.1 223.57 3994.52 705.23 4760.39 526.2 4762.44 534.96 3987.94 716.01" style="fill:#fff"/></g><g style="opacity:0.2"><rect x="3230.89" y="1162.33" width="927.22" height="9" transform="translate(317.28 2456.91) rotate(-31.55)" style="fill:#fff"/></g><g style="opacity:0.2"><rect x="3251.61" y="1574.04" width="9" height="635.93" transform="translate(90.08 980.49) rotate(-10.56)" style="fill:#fff"/></g><polygon points="1175.55 1828.75 1140.49 1848.99 1140.49 1889.48 1175.55 1909.72 1210.61 1889.48 1210.61 1848.99 1175.55 1828.75" style="fill:#cde6eb"/><g style="opacity:0.2"><polygon points="1957.76 543.3 1911.78 463.66 1469.69 261.27 1473.44 253.09 1918.13 456.67 1965.56 538.8 1957.76 543.3" style="fill:#fff"/></g><g style="opacity:0.2"><path d="M1603.63,145l-7.39-5.13c6.6-9.5,214.63-307.08,216.73-310.09l7.37,5.16C1818.24-162.08,1610.22,135.5,1603.63,145Z" transform="translate(381.75 351.49)" style="fill:#fff"/></g><g style="opacity:0.2"><path d="M813.94,316.22,550.66,143.1,457.25,89.16c-26-16-254.08-156.87-264.17-166.95l6.37-6.36C206.6-77,360.31,18.78,461.92,81.47l93.57,54,263.4,173.2Z" transform="translate(381.75 351.49)" style="fill:#fff"/></g><g style="opacity:0.2"><polygon points="3999.35 1909.92 3991.66 1905.23 4195.76 1570.67 4267.21 1529.42 4267.84 1529.26 4484.56 1476.44 4486.69 1485.18 4270.6 1537.86 4202.25 1577.31 3999.35 1909.92" style="fill:#fff"/></g><g style="opacity:0.2"><rect x="414.04" y="-3.79" width="207.95" height="9" transform="translate(791.1 858.69) rotate(-77.97)" style="fill:#fff"/></g><polygon points="888.07 409.86 841.36 436.82 841.36 490.75 888.07 517.72 934.77 490.75 934.77 436.82 888.07 409.86" style="fill:#cde6eb"/></g></g><g id="f3b14e12-9b10-4625-8cc5-fbc3f20dd664" data-name="Layer 1"><g style="clip-path:url(#a4408ed5-a24c-42a5-af7b-39eeab672f14)"><rect x="2509.24" y="1265.76" width="706.45" height="955.23" rx="41.01" style="fill:#fff"/><path d="M2792.93,1874.5H2168.51a46.07,46.07,0,0,1-46-46V955.28a46.06,46.06,0,0,1,46-46h624.42a46.06,46.06,0,0,1,46,46v873.2A46.06,46.06,0,0,1,2792.93,1874.5ZM2168.51,919.27a36.05,36.05,0,0,0-36,36v873.2a36.06,36.06,0,0,0,36,36h624.42a36.06,36.06,0,0,0,36-36V955.28a36.05,36.05,0,0,0-36-36Z" transform="translate(381.75 351.49)" style="fill:#6198c5"/><rect x="2570.19" y="1353.59" width="584.56" height="628.6" style="fill:#d7ecf0"/><rect x="2569.3" y="2048.42" width="360.69" height="27.82" style="fill:#9dbbd4"/><rect x="2569.3" y="2104.86" width="398.62" height="27.82" style="fill:#9dbbd4"/><rect x="3051.73" y="2048.42" width="103.02" height="27.82" style="fill:#5a89ad"/><rect x="2692.56" y="1404.72" width="339.81" height="526.33" rx="9.81" style="fill:#cdb390"/><rect x="2714.94" y="1489.74" width="295.05" height="316.47" rx="13.07" style="fill:#fff"/><path d="M2461.76,1218.42s-1.71-15.89,4.35-21.2,11.08-4,15.32-2.91,11.6,8,10.69,13.19-2,10.35-2,10.35l.91,6.37a1.2,1.2,0,0,1-1.37,1.14h-3s-3.86,7.17-5.46,7.17-7.84-2.85-7.84-2.85Z" transform="translate(381.75 351.49)" style="fill:#fc987c"/><path d="M2456.84,1225.46s4.75-1.07,6.76-7.41l13.9,3.93-2.14,13.39S2457.64,1229.67,2456.84,1225.46Z" transform="translate(381.75 351.49)" style="fill:#fc987c"/><path d="M2461.27,1222.43a9,9,0,0,1-4.43,3c.8,4.21,19.5,10,19.5,10l.08-3.36C2471.18,1226.61,2467.08,1224.64,2461.27,1222.43Z" transform="translate(381.75 351.49)" style="fill:#91272b"/><path d="M2556.7,1377.25s4.33,2.85,7.3,1.76c9.16-3.36,12.9-9.21,15.09-8.61s2.11,6.11.83,9.06-10.54,10.66-11.06,12.65c-.9,3.44-5,10.69-10.32,8.11-4.13-2-10.81-12.71-10.69-13.14C2548.39,1385.09,2556.7,1377.25,2556.7,1377.25Z" transform="translate(381.75 351.49)" style="fill:#580005"/><path d="M2493.85,1313.4s19.18,12.37,23,16,11.48,16.63,16.05,21.07c3.22,3.13,17.48,20.14,24.57,27.15,2.85,2.82-5.08,12.48-8.35,10.2-9.11-6.33-30.2-21.75-32.91-25.09a61.64,61.64,0,0,1-10.17-19.43s-28.67-6.56-32.23-11.52S2493.85,1313.4,2493.85,1313.4Z" transform="translate(381.75 351.49)" style="fill:#fc987c"/><path d="M2557.43,1377.61c-7.09-7-21.35-24-24.57-27.15a31.75,31.75,0,0,1-2.61-3,114.31,114.31,0,0,0-14.83,14.26c.25.33.49.66.75,1,2.71,3.34,23.8,18.76,32.91,25.09C2552.35,1390.09,2560.28,1380.43,2557.43,1377.61Z" transform="translate(381.75 351.49)" style="fill:#91272b"/><path d="M2367.83,1196.47s4.7-.16,5.16.3,6.07,7,7.13,7.28a5,5,0,0,0,2,.15s7.28,9.1,12.28,12.44,17.29,12.59,26.7,13.8l8.64-9.56s-12.85-5.35-15.77-7.58c-5.75-4.39-27-14.1-27-14.1s-1.36-5.92-4.24-6.53a38.46,38.46,0,0,0-7.28-.45s-7.13,1.67-7.89,2.12S2366.16,1196.31,2367.83,1196.47Z" transform="translate(381.75 351.49)" style="fill:#fc987c"/><path d="M2391.63,1304.87a2.48,2.48,0,0,0-1.15-1.6,27.07,27.07,0,0,0-7.78-2.84c-6.15-1.36-14.79-6.37-21.84-4.77s-10.47,5.23-8.19,7,15,6.37,18.65,9.55,9.1,8.42,9.1,8.42l9.1-8.64A7,7,0,0,0,2391.63,1304.87Z" transform="translate(381.75 351.49)" style="fill:#580005"/><path d="M2376.94,1317s31.69,42.32,34,45,12.28,11.37,20.93,5,21.38-24.57,21.38-24.57l-24.34-7-7.28,10s-1.37-9.33-11.38-18a203.07,203.07,0,0,0-20.7-15.47,11,11,0,0,0-5.46-2.74C2379.65,1308.81,2374.47,1311,2376.94,1317Z" transform="translate(381.75 351.49)" style="fill:#fc987c"/><path d="M2411,1328.24c-.27-.25-.52-.49-.8-.73a203.07,203.07,0,0,0-20.7-15.47,11,11,0,0,0-5.46-2.74c-4.41-.49-9.59,1.72-7.12,7.74,0,0,7.79,10.41,15.93,21.24C2398.13,1333.07,2404.35,1330.28,2411,1328.24Z" transform="translate(381.75 351.49)" style="fill:#91272b"/><path d="M2443.67,1292.47s-10.21,12.16-11.07,19.29c-1,8.14.15,10.29.15,10.29l-10.23,20.18,22.12,12.16,17.68-20.51,22.13,4.17,14-22.22-15.53-10a15,15,0,0,1-6.46-9.21h0Z" transform="translate(381.75 351.49)" style="fill:#91272b"/><path d="M2483.06,1265.76s6.31,8.71,10.05,11.09c11.41,7.26,32.15,15.17,32.15,15.17a29,29,0,0,0,6.53.6c3-.15,6.21-.79,7.43-.94s2.12-9.07,2.12-9.07a51.67,51.67,0,0,0-7-1.51c-1.51,0-7.28,2.12-7.28,2.12s-22.75-14.56-24.57-15.32-7.17-9.18-7.17-9.18Z" transform="translate(381.75 351.49)" style="fill:#fc987c"/><path d="M2548.77,1287.13a1.22,1.22,0,0,1-.41-.07c-4-1.48-11.47-3.28-11.54-3.3a1.18,1.18,0,0,1-.87-1.42,1.17,1.17,0,0,1,1.42-.87c.31.07,7.7,1.85,11.81,3.37a1.18,1.18,0,0,1-.41,2.29Z" transform="translate(381.75 351.49)" style="fill:#fc987c"/><path d="M2548.85,1289.86a1.14,1.14,0,0,1-.41-.07c-4-1.48-11.47-3.28-11.54-3.3a1.18,1.18,0,1,1,.55-2.29c.31.07,7.69,1.85,11.81,3.38a1.18,1.18,0,0,1-.41,2.28Z" transform="translate(381.75 351.49)" style="fill:#fc987c"/><path d="M2547.64,1292.38a1.15,1.15,0,0,1-.41-.08c-4-1.47-11.47-3.27-11.55-3.29a1.18,1.18,0,0,1-.87-1.42,1.17,1.17,0,0,1,1.42-.87c.31.07,7.7,1.85,11.82,3.37a1.18,1.18,0,0,1-.41,2.29Z" transform="translate(381.75 351.49)" style="fill:#fc987c"/><path d="M2544.73,1294.9a1.25,1.25,0,0,1-.58-.15,60.09,60.09,0,0,0-10.57-4.18,1.18,1.18,0,0,1-.8-1.46,1.16,1.16,0,0,1,1.45-.8,60.37,60.37,0,0,1,11.09,4.39,1.18,1.18,0,0,1-.59,2.2Z" transform="translate(381.75 351.49)" style="fill:#fc987c"/><path d="M2499.94,1263.35s-10.14-21.12-15.9-25.6c-4.28-3.34-26.16-13.7-28.68-14.87a18.66,18.66,0,0,0-6.3-1.66l-21.93-1.85a12.81,12.81,0,0,0-7.15,11.5c0,4.25,3.28,8.84,3.28,8.84l13.7,3.61a52.85,52.85,0,0,0,1.7,13.66c3.19,12.29,2.62,39.25,2.62,39.25l35.71,10.16s2.62-21.08,3.88-38.42l7.1,6.31Z" transform="translate(381.75 351.49)" style="fill:#91272b"/><path d="M2477.41,1212.77c3.84-5.54,8.92-3.92,14.41-3.28.06-.32,3.71-3.46,3.77-3.77.91-5.23-9.91-10.35-14.16-11.41s-9.25-2.39-15.32,2.91c-4.63,4.06-5.3,15.3-5.36,20.38a3.6,3.6,0,0,0,2.34,3.4l3.76,1.41a2.5,2.5,0,0,0,3-1C2470.26,1220.73,2475.53,1215.5,2477.41,1212.77Z" transform="translate(381.75 351.49)" style="fill:#845041"/><path d="M2565.83,1316.67a15.81,15.81,0,1,0,22.36,0A15.82,15.82,0,0,0,2565.83,1316.67Z" transform="translate(381.75 351.49)" style="fill:#dadada"/><path d="M2569.64,1337.74l2.39,4.09a14.13,14.13,0,0,0,7.14.28,17.49,17.49,0,0,0,1.1-4.44l-5.91-2.83Z" transform="translate(381.75 351.49)" style="fill:#002d42"/><path d="M2571.09,1317.3a18.62,18.62,0,0,0-2.45,6.22,37,37,0,0,0,5.47,4c.22-.1,5.82-4.25,5.82-4.25a20.27,20.27,0,0,0-1.76-6C2573.7,1316.26,2571.09,1317.3,2571.09,1317.3Z" transform="translate(381.75 351.49)" style="fill:#002d42"/><path d="M2586.56,1326.86l.16,6.88a12.86,12.86,0,0,0,3.83.63,19.51,19.51,0,0,0,2-6.1,10.54,10.54,0,0,0-2.46-4.65Z" transform="translate(381.75 351.49)" style="fill:#002d42"/><path d="M2563.76,1327a10.06,10.06,0,0,1-1.69-2.77l-.67.48c-1.13,4.71,1.14,9.68,1.14,9.68l1.54-.47C2563.29,1331.57,2563.76,1327,2563.76,1327Z" transform="translate(381.75 351.49)" style="fill:#002d42"/><path d="M2569.05,1315l1.41-1.6a22,22,0,0,0-4,2.61Z" transform="translate(381.75 351.49)" style="fill:#002d42"/><path d="M2580.3,1312.36l-.22.6a19,19,0,0,1,2,1.82s4.21,1,6.19,2.86l.44-.37A15.78,15.78,0,0,0,2580.3,1312.36Z" transform="translate(381.75 351.49)" style="fill:#002d42"/><rect x="2715.19" y="1430.21" width="294.56" height="33.12" rx="13.37" style="fill:#e3d0b6"/><rect x="2714.94" y="1850.1" width="242.85" height="12.93" style="fill:#e3d0b6"/><rect x="2714.94" y="1875.96" width="178.95" height="12.93" style="fill:#e3d0b6"/><circle cx="2679.81" cy="967.61" r="13.51" transform="translate(1504.14 3704.91) rotate(-76.72)" style="fill:#6198c5"/><circle cx="2719.65" cy="967.61" r="13.51" transform="translate(494.11 2557.98) rotate(-45)" style="fill:#6198c5"/><circle cx="2759.49" cy="967.61" r="13.51" transform="translate(505.78 2586.15) rotate(-45)" style="fill:#6198c5"/><rect x="7.43" y="68.23" width="766.24" height="895.75" rx="41.01" style="fill:#fff"/><path d="M348.6,617.78H-331a48.66,48.66,0,0,1-48.61-48.61v-809.1A48.66,48.66,0,0,1-331-288.54H348.6a48.66,48.66,0,0,1,48.6,48.61v809.1A48.66,48.66,0,0,1,348.6,617.78ZM-331-278a38.09,38.09,0,0,0-38.05,38v809.1a38.09,38.09,0,0,0,38.05,38H348.6a38.09,38.09,0,0,0,38-38v-809.1a38.09,38.09,0,0,0-38-38Z" transform="translate(381.75 351.49)" style="fill:#6198c5"/><rect x="73.53" y="163.5" width="634.04" height="541.47" style="fill:#d7ecf0"/><rect x="72.57" y="776.81" width="391.21" height="30.18" style="fill:#9dbbd4"/><rect x="72.57" y="838.02" width="305.52" height="30.18" style="fill:#6198c5"/><rect x="595.83" y="776.81" width="111.74" height="30.18" style="fill:#5a89ad"/><rect x="249.88" y="216.35" width="281.34" height="435.77" rx="9.81" style="fill:#cdb390"/><rect x="268.41" y="286.74" width="244.29" height="262.02" rx="13.07" style="fill:#00919f"/><rect x="268.61" y="237.45" width="243.88" height="27.42" rx="12.98" style="fill:#ead9bf"/><rect x="268.41" y="585.1" width="201.07" height="10.7" style="fill:#ead9bf"/><rect x="268.41" y="606.5" width="148.16" height="10.7" style="fill:#ead9bf"/><circle cx="617.52" cy="120.17" r="14.27" style="fill:#6198c5"/><circle cx="659.61" cy="120.17" r="14.27" style="fill:#6198c5"/><circle cx="701.7" cy="120.17" r="14.27" style="fill:#6198c5"/><circle cx="3150.03" cy="2066.71" r="95.78" style="fill:#f7a61c"/><circle cx="2760.05" cy="1708.45" r="95.78" transform="translate(-17.91 2803.53) rotate(-45)" style="fill:#ffc01c"/><circle cx="3141.8" cy="2059.94" r="72.73" style="fill:#ff8300"/><path d="M2752,1739.05a9,9,0,0,1-6.36-2.64l-27-27a9,9,0,1,1,12.73-12.73l20.63,20.63,36.83-36.83a9,9,0,1,1,12.73,12.73l-43.19,43.19A9,9,0,0,1,2752,1739.05Z" transform="translate(381.75 351.49)" style="fill:#fff"/><rect x="3772.76" y="1762.02" width="725.33" height="1004.06" rx="41.01" style="fill:#fff"/><path d="M4075.33,2419.59H3432a46.07,46.07,0,0,1-46-46v-922a46.07,46.07,0,0,1,46-46h643.3a46.06,46.06,0,0,1,46,46v922A46.06,46.06,0,0,1,4075.33,2419.59ZM3432,1415.53a36.06,36.06,0,0,0-36,36v922a36.06,36.06,0,0,0,36,36h643.3a36.05,36.05,0,0,0,36-36v-922a36.05,36.05,0,0,0-36-36Z" transform="translate(381.75 351.49)" style="fill:#6198c5"/><rect x="3835.34" y="1852.19" width="600.18" height="668.7" style="fill:#d7ecf0"/><rect x="3834.42" y="2588.89" width="370.33" height="28.57" style="fill:#6198c5"/><rect x="3834.42" y="2646.84" width="289.21" height="28.57" style="fill:#6198c5"/><rect x="4329.75" y="2588.89" width="105.77" height="28.57" style="fill:#5a89ad"/><circle cx="4342.79" cy="1815.07" r="13.51" style="fill:#6198c5"/><circle cx="4382.63" cy="1815.07" r="13.51" style="fill:#6198c5"/><circle cx="4422.48" cy="1815.07" r="13.51" style="fill:#6198c5"/><rect x="3956.63" y="1924.48" width="357.6" height="524.14" rx="9.81" style="fill:#00919f"/><rect x="3980.18" y="1983.92" width="310.5" height="318.68" rx="13.07" style="fill:#fff"/><path d="M3897.09,1614H3610.27a11.57,11.57,0,0,1-11.58-11.58h0a11.57,11.57,0,0,1,11.58-11.57h286.82a11.57,11.57,0,0,1,11.58,11.57h0A11.57,11.57,0,0,1,3897.09,1614Z" transform="translate(381.75 351.49)" style="fill:#99d3d9"/><polygon points="4002.9 2220.96 4002.9 2105.98 4054.58 2105.98 4054.58 2140.32 4091.25 2140.32 4091.25 2123.7 4129.59 2123.7 4129.59 2136.99 4157.93 2136.99 4157.93 2096.01 4203.78 2065.55 4203.78 2094.91 4244.62 2094.91 4244.62 2111.52 4267.96 2111.52 4267.96 2220.96 4002.9 2220.96" style="fill:#2b608a"/><rect x="999.55" y="475.57" width="825.43" height="964.94" rx="41.01" style="fill:#fff"/><path d="M1402.22,1094H658.81a46.06,46.06,0,0,1-46-46V165.09a46.06,46.06,0,0,1,46-46h743.41a46.06,46.06,0,0,1,46,46V1048A46.06,46.06,0,0,1,1402.22,1094ZM658.81,129.08a36,36,0,0,0-36,36V1048a36,36,0,0,0,36,36h743.41a36,36,0,0,0,36-36V165.09a36,36,0,0,0-36-36Z" transform="translate(381.75 351.49)" style="fill:#6198c5"/><rect x="1070.76" y="578.19" width="683.02" height="583.3" style="fill:#d7ecf0"/><rect x="1069.72" y="1238.88" width="421.44" height="32.51" style="fill:#9dbbd4"/><rect x="1069.72" y="1304.82" width="202.9" height="32.51" style="fill:#9dbbd4"/><rect x="1633.4" y="1238.88" width="120.37" height="32.51" style="fill:#5a89ad"/><rect x="839.76" y="277.48" width="393.91" height="481.45" transform="translate(2455.17 1387.89) rotate(180)" style="fill:#cdb390"/><polygon points="1492.43 1000.39 1603.58 1110.41 1615.41 1110.41 1615.41 1101.6 1502.69 990.02 1492.43 1000.39" style="fill:#b8a181"/><polygon points="1334.23 990.02 1221.51 1101.6 1221.51 1110.41 1233.34 1110.41 1344.49 1000.39 1334.23 990.02" style="fill:#b8a181"/><polygon points="1344.49 739 1233.34 628.97 1221.51 628.97 1221.51 637.78 1334.23 749.36 1344.49 739" style="fill:#b8a181"/><polygon points="1492.43 739 1502.69 749.36 1615.41 637.78 1615.41 628.97 1603.58 628.97 1492.43 739" style="fill:#b8a181"/><rect x="836.12" y="364.32" width="401.18" height="307.76" transform="translate(900.26 1906.4) rotate(-90)" style="fill:#fff"/><path d="M964.12,583.15c-1.45-2.46-13.73-94.17-9.79-130.15s2.8-89,66-99.82c41.7-7.17,74.31,11.51,86.55,64.61s18.49,144.94,24.33,159.56,9.57,32.95,9.57,32.95S988.46,624.55,964.12,583.15Z" transform="translate(381.75 351.49)" style="fill:#36211b"/><path d="M1137.07,594.18c-37-20.2-128.43-40-128.43-40s-63,30.61-94.36,50.89C899,615,889.24,632,882.94,650v69h308.12V648.77C1180.51,625,1165.13,609.51,1137.07,594.18Z" transform="translate(381.75 351.49)" style="fill:#91272b"/><path d="M975.7,403.7c-10,29.12-10.48,103.91,23.09,128.05,10.87,7.81,47.59-1.75,73.7-19.66,0,0,7.93-19.56,9.65-50,1-18-3.85-55.49-3.85-55.49S1012,342.86,975.7,403.7Z" transform="translate(381.75 351.49)" style="fill:#fc987c"/><path d="M1003.13,516.75l3.61,37.36s-51.18,26.13-51.92,28c-5.66,14.26,6.58,48.17,75.81,50.56,57.7,2,98.45-34.47,98.45-34.47-2.58-4.91-50.42-35.25-50.42-35.25s-10.17-50.59-5.67-62.58Z" transform="translate(381.75 351.49)" style="fill:#fc987c"/><path d="M1027.59,544.54c3.43-1,6.8-2.18,10.14-3.42a40.53,40.53,0,0,1,3.79-1.76l1.49-.73a96.16,96.16,0,0,0,8.66-5.23c1.25-1.1,2-1.74,2.45-2.06s1-.9,1.43-1.36c.9-.89,1.75-1.83,2.6-2.77a34.06,34.06,0,0,1,1.95-2.82c.4-.67.8-1.34,1.17-2,.21-.36.58-1.14.93-1.89s.65-1.76.78-2.18c0-.13.07-.26.11-.39-2.62,1.59-5.28,3.12-8,4.56-14.71,7.82-33.52,15.51-50.33,11.21l1.51,15.65A182.7,182.7,0,0,0,1027.59,544.54Z" transform="translate(381.75 351.49)" style="fill:#fc8973"/><path d="M1038.49,540.84l.78-.29c1.19-.46,2.69-1.3,2.25-1.19-.84.43-1.69.86-2.55,1.26Z" transform="translate(381.75 351.49)" style="fill:#fc8973"/><path d="M964.07,426.86l43.62-29.93s31.67,24,83,37.73c0,0-.38-71.81-64.1-68.42C998.25,367.74,969.76,393.52,964.07,426.86Z" transform="translate(381.75 351.49)" style="fill:#36211b"/><path d="M1052.41,396.66s31.84,62.72,26.67,184.21c-1.7,40.18,1.05,91.2,1.05,91.2s74.44-23,60.79-86.14c-17.6-81.37-31.58-158.72-31.58-158.72Z" transform="translate(381.75 351.49)" style="fill:#36211b"/><circle cx="1276.86" cy="176.77" r="13.51" transform="translate(630.74 1306.14) rotate(-45)" style="fill:#6198c5"/><circle cx="1316.7" cy="176.77" r="13.51" transform="translate(642.41 1334.31) rotate(-45)" style="fill:#6198c5"/><circle cx="1356.55" cy="176.77" r="13.51" transform="translate(654.08 1362.49) rotate(-45)" style="fill:#6198c5"/><circle cx="1318.74" cy="929.3" r="95.78" transform="translate(110.88 1556.16) rotate(-45)" style="fill:#f7a61c"/><circle cx="1310.51" cy="922.53" r="95.78" transform="translate(113.26 1548.36) rotate(-45)" style="fill:#ffc01c"/><circle cx="1692.26" cy="1274.02" r="72.73" style="fill:#ff8300"/><path d="M1302.41,953.12a9,9,0,0,1-6.37-2.63l-27-27a9,9,0,0,1,12.73-12.72l20.63,20.63,36.83-36.83A9,9,0,0,1,1352,907.3l-43.19,43.19A9,9,0,0,1,1302.41,953.12Z" transform="translate(381.75 351.49)" style="fill:#fff"/><circle cx="1417.09" cy="1027.66" r="95.78" transform="translate(70.14 1654.52) rotate(-45)" style="fill:#f7a61c"/><circle cx="1408.86" cy="1020.89" r="95.78" transform="translate(72.52 1646.71) rotate(-45)" style="fill:#ffc01c"/><circle cx="1790.61" cy="1372.37" r="72.73" style="fill:#ff8300"/><path d="M1400.76,1051.48a9,9,0,0,1-6.36-2.63l-27-27a9,9,0,0,1,12.73-12.73l20.63,20.63,36.83-36.82a9,9,0,0,1,12.73,12.72l-43.19,43.2A9,9,0,0,1,1400.76,1051.48Z" transform="translate(381.75 351.49)" style="fill:#fff"/><rect x="1486.38" y="1625.32" width="725.33" height="847.92" rx="41.01" style="fill:#fff"/><path d="M1789,2126.75H1145.64a46.06,46.06,0,0,1-46-46v-765.9a46.06,46.06,0,0,1,46-46H1789a46.06,46.06,0,0,1,46,46v765.9A46.06,46.06,0,0,1,1789,2126.75Zm-643.31-847.92a36.06,36.06,0,0,0-36,36v765.9a36.05,36.05,0,0,0,36,36H1789a36.05,36.05,0,0,0,36-36v-765.9a36.06,36.06,0,0,0-36-36Z" transform="translate(381.75 351.49)" style="fill:#6198c5"/><rect x="1548.95" y="1715.5" width="600.19" height="512.56" style="fill:#d7ecf0"/><rect x="1548.04" y="2296.06" width="370.33" height="28.57" style="fill:#9dbbd4"/><rect x="1548.04" y="2354.01" width="289.21" height="28.57" style="fill:#6198c5"/><rect x="2043.36" y="2296.06" width="105.77" height="28.57" style="fill:#5a89ad"/><path d="M1397,1707.6l-6.37-10.62-10.62-6.37s-19.82,12.23-29.14,22.72-57.11,63.52-57.11,63.52l8.5,8.5,8.49,8.49s53-47.78,63.52-57.11S1397,1707.6,1397,1707.6Z" transform="translate(381.75 351.49)" style="fill:#cc971a"/><circle cx="1670" cy="2150.82" r="24.72" style="fill:#ffc01c"/><path d="M1681.53,1406.05l-45.34,16.44c-6.74,2.45-14.08,8.06-19.06,13.23-26.64,27.66-118.69,119.19-158.67,158.68-9.5,9.37-21.86,23-49,27.39,0,0,10.2,31.76-10.48,50.69l8,8Z" transform="translate(381.75 351.49)" style="fill:#bdbdbd"/><path d="M1681.53,1406.05l-16.43,45.34c-2.46,6.74-8.07,14.08-13.24,19.06-27.65,26.65-119.18,118.7-158.67,158.68-9.38,9.49-23,21.85-27.39,48.95,0,0-31.76-10.2-50.7,10.49l-8-8Z" transform="translate(381.75 351.49)" style="fill:#a0a0a0"/><path d="M1473.61,1695.79s-9.33,9.91-9.91,9.91c-6.59,0-38.58-19.93-38.58-19.93,13.4-14.57,5.83-29.14,5.83-29.14s-14.57-7.57-29.14,5.83c0,0-19.93-32-19.93-38.58,0-.58,9.91-9.9,9.91-9.9s-21-6-29,3.61c-8.74,10.49,4.66,65.27,11.65,73.43s11.66,10.49,11.66,10.49,2.33,4.66,10.49,11.65,62.93,20.4,73.42,11.66C1479.57,1716.83,1473.61,1695.79,1473.61,1695.79Z" transform="translate(381.75 351.49)" style="fill:#ffc01c"/><circle cx="1674.2" cy="1321.05" r="13.51" transform="translate(385.59 2998.43) rotate(-76.72)" style="fill:#6198c5"/><circle cx="1714.04" cy="1321.05" r="13.51" transform="translate(517.24 3152.84) rotate(-80.78)" style="fill:#6198c5"/><circle cx="1753.88" cy="1321.05" r="13.51" transform="translate(550.7 3192.16) rotate(-80.78)" style="fill:#6198c5"/><rect x="279.42" y="1538.63" width="604.39" height="706.54" rx="41.01" style="fill:#fff"/><path d="M461.05,1898.68H-61.31a46.06,46.06,0,0,1-46-46V1228.16a46.07,46.07,0,0,1,46-46H461.05a46.06,46.06,0,0,1,46,46v624.51A46.06,46.06,0,0,1,461.05,1898.68ZM-61.31,1192.14a36.06,36.06,0,0,0-36,36v624.51a36.05,36.05,0,0,0,36,36H461.05a36,36,0,0,0,36-36V1228.16a36.05,36.05,0,0,0-36-36Z" transform="translate(381.75 351.49)" style="fill:#6198c5"/><rect x="331.56" y="1613.77" width="500.11" height="427.1" style="fill:#d7ecf0"/><rect x="330.8" y="2097.53" width="308.58" height="23.8" style="fill:#9dbbd4"/><rect x="330.8" y="2145.82" width="240.99" height="23.8" style="fill:#9dbbd4"/><rect x="743.54" y="2097.53" width="88.14" height="23.8" style="fill:#5a89ad"/><rect x="416.01" y="1661.51" width="29.16" height="29.16" style="fill:#6198c5"/><rect x="416.01" y="1695.07" width="29.16" height="29.16" style="fill:#6198c5"/><rect x="416.01" y="1728.63" width="29.16" height="29.16" style="fill:#6198c5"/><rect x="416.01" y="1896.43" width="29.16" height="29.16" style="fill:#6198c5"/><rect x="416.01" y="1930" width="29.16" height="29.16" style="fill:#6198c5"/><rect x="449.58" y="1661.51" width="29.16" height="29.16" style="fill:#6198c5"/><rect x="449.58" y="1728.63" width="29.16" height="29.16" style="fill:#6198c5"/><rect x="449.58" y="1896.43" width="29.16" height="29.16" style="fill:#6198c5"/><rect x="483.14" y="1661.51" width="29.16" height="29.16" style="fill:#6198c5"/><rect x="483.14" y="1695.07" width="29.16" height="29.16" style="fill:#6198c5"/><rect x="483.14" y="1728.63" width="29.16" height="29.16" style="fill:#6198c5"/><rect x="483.14" y="1762.19" width="29.16" height="29.16" style="fill:#6198c5"/><rect x="483.14" y="1795.75" width="29.16" height="29.16" style="fill:#6198c5"/><rect x="483.14" y="1829.31" width="29.16" height="29.16" style="fill:#6198c5"/><rect x="483.14" y="1862.87" width="29.16" height="29.16" style="fill:#6198c5"/><rect x="483.14" y="1896.43" width="29.16" height="29.16" style="fill:#6198c5"/><rect x="483.14" y="1930" width="29.16" height="29.16" style="fill:#6198c5"/><rect x="516.7" y="1728.63" width="29.16" height="29.16" style="fill:#6198c5"/><rect x="516.7" y="1896.43" width="29.16" height="29.16" style="fill:#6198c5"/><rect x="550.26" y="1728.63" width="29.16" height="29.16" style="fill:#6198c5"/><rect x="550.26" y="1896.43" width="29.16" height="29.16" style="fill:#6198c5"/><rect x="583.82" y="1728.63" width="29.16" height="29.16" style="fill:#6198c5"/><rect x="583.82" y="1896.43" width="29.16" height="29.16" style="fill:#6198c5"/><rect x="617.38" y="1728.63" width="29.16" height="29.16" style="fill:#6198c5"/><rect x="617.38" y="1896.43" width="29.16" height="29.16" style="fill:#6198c5"/><rect x="650.94" y="1661.51" width="29.16" height="29.16" style="fill:#6198c5"/><rect x="650.94" y="1695.07" width="29.16" height="29.16" style="fill:#6198c5"/><rect x="650.94" y="1728.63" width="29.16" height="29.16" style="fill:#6198c5"/><rect x="650.94" y="1762.19" width="29.16" height="29.16" style="fill:#6198c5"/><rect x="650.94" y="1795.75" width="29.16" height="29.16" style="fill:#6198c5"/><rect x="650.94" y="1829.31" width="29.16" height="29.16" style="fill:#6198c5"/><rect x="650.94" y="1862.87" width="29.16" height="29.16" style="fill:#6198c5"/><rect x="650.94" y="1896.43" width="29.16" height="29.16" style="fill:#6198c5"/><rect x="650.94" y="1930" width="29.16" height="29.16" style="fill:#6198c5"/><rect x="684.5" y="1661.51" width="29.16" height="29.16" style="fill:#6198c5"/><rect x="684.5" y="1728.63" width="29.16" height="29.16" style="fill:#6198c5"/><rect x="684.5" y="1896.43" width="29.16" height="29.16" style="fill:#6198c5"/><rect x="718.06" y="1661.51" width="29.16" height="29.16" style="fill:#6198c5"/><rect x="718.06" y="1695.07" width="29.16" height="29.16" style="fill:#6198c5"/><rect x="718.06" y="1728.63" width="29.16" height="29.16" style="fill:#6198c5"/><rect x="718.06" y="1896.43" width="29.16" height="29.16" style="fill:#6198c5"/><rect x="718.06" y="1930" width="29.16" height="29.16" style="fill:#6198c5"/><rect x="416.01" y="1963.98" width="29.16" height="29.16" style="fill:#6198c5"/><rect x="449.58" y="1963.98" width="29.16" height="29.16" style="fill:#6198c5"/><rect x="483.14" y="1963.98" width="29.16" height="29.16" style="fill:#6198c5"/><rect x="650.94" y="1963.98" width="29.16" height="29.16" style="fill:#6198c5"/><rect x="684.5" y="1963.98" width="29.16" height="29.16" style="fill:#6198c5"/><rect x="718.06" y="1963.98" width="29.16" height="29.16" style="fill:#6198c5"/><circle cx="750.28" cy="1577.05" r="11.8" style="fill:#6198c5"/><circle cx="785.08" cy="1577.05" r="11.8" style="fill:#6198c5"/><circle cx="819.88" cy="1577.05" r="11.8" style="fill:#6198c5"/><rect x="3441.52" y="576.73" width="649.3" height="759.04" rx="41.01" style="fill:#fff"/><path d="M3668.06,989.29H3100.79a46.08,46.08,0,0,1-46-46v-677a46.08,46.08,0,0,1,46-46h567.27a46.07,46.07,0,0,1,46,46v677A46.07,46.07,0,0,1,3668.06,989.29Zm-567.27-759a36.06,36.06,0,0,0-36,36v677a36.06,36.06,0,0,0,36,36h567.27a36.05,36.05,0,0,0,36-36v-677a36.05,36.05,0,0,0-36-36Z" transform="translate(381.75 351.49)" style="fill:#6198c5"/><rect x="3497.54" y="657.46" width="537.27" height="458.83" style="fill:#d7ecf0"/><rect x="3496.72" y="1177.16" width="331.51" height="25.57" style="fill:#9dbbd4"/><rect x="3496.72" y="1229.04" width="380.43" height="25.57" style="fill:#9dbbd4"/><rect x="3940.12" y="1177.16" width="94.69" height="25.57" style="fill:#5a89ad"/><rect x="3582.7" y="871.71" width="29.91" height="29.91" style="fill:#00919f"/><rect x="3582.7" y="905.41" width="29.91" height="29.91" style="fill:#00919f"/><rect x="3582.7" y="939.11" width="29.91" height="29.91" style="fill:#00919f"/><rect x="3616.41" y="804.3" width="29.91" height="29.91" style="fill:#00919f"/><rect x="3616.41" y="838" width="29.91" height="29.91" style="fill:#00919f"/><rect x="3616.41" y="871.71" width="29.91" height="29.91" style="fill:#00919f"/><rect x="3616.41" y="905.41" width="29.91" height="29.91" style="fill:#00919f"/><rect x="3616.41" y="939.11" width="29.91" height="29.91" style="fill:#00919f"/><rect x="3616.41" y="972.82" width="29.91" height="29.91" style="fill:#00919f"/><rect x="3650.11" y="736.9" width="29.91" height="29.91" style="fill:#00919f"/><rect x="3650.11" y="770.6" width="29.91" height="29.91" style="fill:#00919f"/><rect x="3650.11" y="804.3" width="29.91" height="29.91" style="fill:#00919f"/><rect x="3650.11" y="838" width="29.91" height="29.91" style="fill:#00919f"/><rect x="3650.11" y="871.71" width="29.91" height="29.91" style="fill:#00919f"/><rect x="3650.11" y="939.11" width="29.91" height="29.91" style="fill:#00919f"/><rect x="3650.11" y="972.82" width="29.91" height="29.91" style="fill:#00919f"/><rect x="3683.81" y="770.6" width="29.91" height="29.91" style="fill:#00919f"/><rect x="3683.81" y="804.3" width="29.91" height="29.91" style="fill:#00919f"/><rect x="3683.81" y="871.71" width="29.91" height="29.91" style="fill:#00919f"/><rect x="3683.81" y="905.41" width="29.91" height="29.91" style="fill:#00919f"/><rect x="3683.81" y="972.82" width="29.91" height="29.91" style="fill:#00919f"/><rect x="3717.51" y="804.3" width="29.91" height="29.91" style="fill:#00919f"/><rect x="3717.51" y="838" width="29.91" height="29.91" style="fill:#00919f"/><rect x="3717.51" y="871.71" width="29.91" height="29.91" style="fill:#00919f"/><rect x="3717.51" y="905.41" width="29.91" height="29.91" style="fill:#00919f"/><rect x="3750.99" y="871.94" width="29.91" height="29.91" style="fill:#00919f"/><rect x="3717.51" y="972.82" width="29.91" height="29.91" style="fill:#00919f"/><rect x="3751.22" y="804.3" width="29.91" height="29.91" style="fill:#00919f"/><rect x="3751.22" y="838" width="29.91" height="29.91" style="fill:#00919f"/><rect x="3751.22" y="972.82" width="29.91" height="29.91" style="fill:#00919f"/><rect x="3784.92" y="804.3" width="29.91" height="29.91" style="fill:#00919f"/><rect x="3784.92" y="838" width="29.91" height="29.91" style="fill:#00919f"/><rect x="3784.92" y="871.71" width="29.91" height="29.91" style="fill:#00919f"/><rect x="3784.92" y="905.41" width="29.91" height="29.91" style="fill:#00919f"/><rect x="3784.92" y="972.82" width="29.91" height="29.91" style="fill:#00919f"/><rect x="3818.62" y="770.6" width="29.91" height="29.91" style="fill:#00919f"/><rect x="3818.62" y="804.3" width="29.91" height="29.91" style="fill:#00919f"/><rect x="3818.62" y="871.71" width="29.91" height="29.91" style="fill:#00919f"/><rect x="3818.62" y="905.41" width="29.91" height="29.91" style="fill:#00919f"/><rect x="3818.62" y="972.82" width="29.91" height="29.91" style="fill:#00919f"/><rect x="3852.33" y="736.9" width="29.91" height="29.91" style="fill:#00919f"/><rect x="3852.33" y="770.6" width="29.91" height="29.91" style="fill:#00919f"/><rect x="3852.33" y="804.3" width="29.91" height="29.91" style="fill:#00919f"/><rect x="3852.33" y="838" width="29.91" height="29.91" style="fill:#00919f"/><rect x="3852.33" y="871.71" width="29.91" height="29.91" style="fill:#00919f"/><rect x="3852.33" y="939.11" width="29.91" height="29.91" style="fill:#00919f"/><rect x="3852.33" y="972.82" width="29.91" height="29.91" style="fill:#00919f"/><rect x="3886.03" y="804.3" width="29.91" height="29.91" style="fill:#00919f"/><rect x="3886.03" y="838" width="29.91" height="29.91" style="fill:#00919f"/><rect x="3886.03" y="871.71" width="29.91" height="29.91" style="fill:#00919f"/><rect x="3886.03" y="905.41" width="29.91" height="29.91" style="fill:#00919f"/><rect x="3886.03" y="939.11" width="29.91" height="29.91" style="fill:#00919f"/><rect x="3886.03" y="972.82" width="29.91" height="29.91" style="fill:#00919f"/><rect x="3919.73" y="871.71" width="29.91" height="29.91" style="fill:#00919f"/><rect x="3919.73" y="905.41" width="29.91" height="29.91" style="fill:#00919f"/><rect x="3919.73" y="939.11" width="29.91" height="29.91" style="fill:#00919f"/><rect x="3650.11" y="1006.94" width="29.91" height="29.91" style="fill:#00919f"/><rect x="3683.81" y="1006.94" width="29.91" height="29.91" style="fill:#00919f"/><rect x="3717.51" y="1006.94" width="29.91" height="29.91" style="fill:#00919f"/><rect x="3751.22" y="1006.94" width="29.91" height="29.91" style="fill:#00919f"/><rect x="3784.92" y="1006.94" width="29.91" height="29.91" style="fill:#00919f"/><rect x="3818.62" y="1006.94" width="29.91" height="29.91" style="fill:#00919f"/><rect x="3852.33" y="1006.94" width="29.91" height="29.91" style="fill:#00919f"/><circle cx="3559.87" cy="268.11" r="13.51" transform="translate(550.13 1734.2) rotate(-22.5)" style="fill:#6198c5"/><circle cx="3599.71" cy="268.11" r="13.51" transform="translate(2893.49 4061.41) rotate(-76.72)" style="fill:#6198c5"/><circle cx="3639.55" cy="268.11" r="13.51" transform="translate(2924.17 4100.19) rotate(-76.72)" style="fill:#6198c5"/><rect x="2202.91" y="253.85" width="669.26" height="782.38" rx="41.01" style="fill:#fff"/><path d="M2449.41,689.74H1862.18a46.07,46.07,0,0,1-46-46V-56.63a46.06,46.06,0,0,1,46-46h587.23a46.06,46.06,0,0,1,46,46V643.72A46.07,46.07,0,0,1,2449.41,689.74ZM1862.18-92.64a36.05,36.05,0,0,0-36,36V643.72a36.06,36.06,0,0,0,36,36h587.23a36.06,36.06,0,0,0,36-36V-56.63a36.05,36.05,0,0,0-36-36Z" transform="translate(381.75 351.49)" style="fill:#6198c5"/><rect x="2260.65" y="337.05" width="553.79" height="472.94" style="fill:#d7ecf0"/><rect x="2259.8" y="872.74" width="341.7" height="26.36" style="fill:#9dbbd4"/><rect x="2259.8" y="926.21" width="226.01" height="26.36" style="fill:#9dbbd4"/><rect x="2716.84" y="872.74" width="97.6" height="26.36" style="fill:#5a89ad"/><rect x="2355.27" y="398.28" width="364.56" height="244.58" rx="26.56" style="fill:#6198c5"/><circle cx="2333.35" cy="-50.95" r="13.51" transform="translate(578.86 1240.54) rotate(-22.5)" style="fill:#6198c5"/><circle cx="2373.19" cy="-50.95" r="13.51" transform="translate(2259.28 2621.95) rotate(-76.72)" style="fill:#6198c5"/><circle cx="2413.03" cy="-50.95" r="13.51" transform="translate(2289.97 2660.73) rotate(-76.72)" style="fill:#6198c5"/><rect x="2355.27" y="681.42" width="364.56" height="16" style="fill:#5a89ad"/><path d="M2264.47,356.37a18.44,18.44,0,1,1,18.43-18.43A18.46,18.46,0,0,1,2264.47,356.37Zm0-26.87a8.44,8.44,0,1,0,8.43,8.44A8.45,8.45,0,0,0,2264.47,329.5Z" transform="translate(381.75 351.49)" style="fill:#9dbbd4"/><path d="M2155.79,242.25A73.18,73.18,0,1,1,2229,169.08,73.25,73.25,0,0,1,2155.79,242.25Zm0-137.35A64.18,64.18,0,1,0,2220,169.08,64.25,64.25,0,0,0,2155.79,104.9Z" transform="translate(381.75 351.49)" style="fill:#fff"/><polygon points="2514.42 487.83 2514.42 553.3 2575.34 520.57 2514.42 487.83" style="fill:#fff"/><circle cx="2425.52" cy="526.86" r="95.78" transform="translate(719.62 2220.9) rotate(-45)" style="fill:#f7a61c"/><circle cx="2417.29" cy="520.08" r="95.78" transform="translate(722 2213.1) rotate(-45)" style="fill:#ffc01c"/><circle cx="2799.04" cy="871.57" r="72.73" style="fill:#ff8300"/><path d="M2409.19,550.68a9,9,0,0,1-6.37-2.64l-27-27a9,9,0,1,1,12.73-12.73L2409.19,529,2446,492.12a9,9,0,1,1,12.73,12.73L2415.55,548A9,9,0,0,1,2409.19,550.68Z" transform="translate(381.75 351.49)" style="fill:#fff"/><circle cx="2519.86" cy="640.06" r="95.78" transform="translate(667.21 2320.77) rotate(-45)" style="fill:#f7a61c"/><circle cx="2511.63" cy="633.29" r="95.78" transform="translate(669.58 2312.96) rotate(-45)" style="fill:#ffc01c"/><circle cx="2893.38" cy="984.78" r="72.73" style="fill:#ff8300"/><path d="M2503.53,663.89a9,9,0,0,1-6.36-2.64l-27-27a9,9,0,1,1,12.73-12.73l20.63,20.63,36.83-36.83a9,9,0,1,1,12.73,12.73l-43.2,43.19A9,9,0,0,1,2503.53,663.89Z" transform="translate(381.75 351.49)" style="fill:#fff"/><circle cx="2422.33" cy="757.59" r="95.78" transform="translate(555.54 2286.23) rotate(-45)" style="fill:#f7a61c"/><circle cx="2414.1" cy="750.82" r="95.78" transform="translate(557.91 2278.43) rotate(-45)" style="fill:#ffc01c"/><circle cx="2795.85" cy="1102.31" r="72.73" style="fill:#ff8300"/><path d="M2406,781.42a9,9,0,0,1-6.37-2.64l-27-27a9,9,0,0,1,12.73-12.73L2406,759.69l36.82-36.83a9,9,0,0,1,12.73,12.73l-43.19,43.19A9,9,0,0,1,2406,781.42Z" transform="translate(381.75 351.49)" style="fill:#fff"/></g></g></svg>