<svg xmlns="http://www.w3.org/2000/svg" viewBox="0 0 800 1000" x="0px" y="0px"><title>FILE</title><g data-name="Layer 68"><path d="M363.07,430.54a54.94,54.94,0,0,0,6.83,5.33l.38.24a54.1,54.1,0,0,0,10.29,5.22c1.42.54,2.83,1,4.19,1.4A54.7,54.7,0,0,0,400,444.89a53.71,53.71,0,0,0,10.5-1,54.76,54.76,0,0,0,42.05-68.93c-.39-1.36-.86-2.77-1.4-4.19A54.27,54.27,0,0,0,446,360.5l-.26-.41a54.24,54.24,0,0,0-5.32-6.82c-.6-.65-1.21-1.29-1.84-1.92A54.47,54.47,0,0,0,419.42,339a53.8,53.8,0,0,0-5.22-1.69,54.73,54.73,0,0,0-67,67,51.37,51.37,0,0,0,1.69,5.23,54.35,54.35,0,0,0,12.31,19.11C361.79,429.34,362.43,430,363.07,430.54ZM400,395.17a19.39,19.39,0,0,1-7.09-37.44l1.2-.46v-3.36a4.71,4.71,0,0,1,9.42,0v2.76l1.4.37a19.39,19.39,0,0,1,14.46,18.74,4.71,4.71,0,0,1-9.42,0,10,10,0,1,0-10,10,19.38,19.38,0,0,1,4.93,38.12l-1.4.37v2.22a4.71,4.71,0,0,1-9.42,0v-2.81l-1.2-.47a19.26,19.26,0,0,1-12.3-18,4.71,4.71,0,1,1,9.42,0,10,10,0,1,0,10-10Z"/><circle cx="274.36" cy="326.99" r="5.9"/><path d="M400,459.35a69.17,69.17,0,1,0-69.16-69.17A69.24,69.24,0,0,0,400,459.35Zm-57.21-53.8a58.58,58.58,0,0,1-2-15.37A59.28,59.28,0,0,1,415.38,333,57.2,57.2,0,0,1,421,334.8a58.78,58.78,0,0,1,20.69,13.33c.68.68,1.34,1.37,2,2.08a58,58,0,0,1,5.75,7.38c.12.17.24.36.35.54a58.76,58.76,0,0,1,5.58,11c.58,1.53,1.09,3.06,1.51,4.54a59.33,59.33,0,0,1,1.24,27.87,59.62,59.62,0,0,1-46.77,46.76,59.33,59.33,0,0,1-27.87-1.24c-1.47-.42-3-.93-4.53-1.51a58.64,58.64,0,0,1-11.12-5.63l-.46-.3a59.5,59.5,0,0,1-7.37-5.75c-.69-.63-1.39-1.3-2.07-2a58.9,58.9,0,0,1-13.34-20.68A55.75,55.75,0,0,1,342.79,405.55Z"/><circle cx="541.97" cy="390.18" r="5.9"/><circle cx="525.64" cy="453.38" r="5.9"/><path d="M474.88,599.63a5.67,5.67,0,0,1-4.54,2.28H329.66a5.67,5.67,0,0,1-4.54-2.28l-15.23-20.4H67v24.16a23.81,23.81,0,0,0,23.77,23.78H709.22A23.81,23.81,0,0,0,733,603.39V579.23H490.11Z"/><circle cx="258.03" cy="390.18" r="5.9"/><circle cx="274.36" cy="453.38" r="5.9"/><circle cx="525.64" cy="326.99" r="5.9"/><path d="M589.06,256.82H210.94a12.47,12.47,0,0,0-12.46,12.46v17.48h403V269.28A12.47,12.47,0,0,0,589.06,256.82ZM231.58,280.41a8.17,8.17,0,1,1,8.17-8.17A8.16,8.16,0,0,1,231.58,280.41Zm26.45,0a8.17,8.17,0,1,1,8.16-8.17A8.17,8.17,0,0,1,258,280.41Z"/><path d="M317.26,570.18l15.24,20.4h135l15.24-20.4a5.63,5.63,0,0,1,4.53-2.28H714.12V196.61a23.81,23.81,0,0,0-23.78-23.78H114.09A28.24,28.24,0,0,0,85.88,201V567.9H312.73A5.63,5.63,0,0,1,317.26,570.18ZM108.42,525V215.75a20.41,20.41,0,0,1,20.38-20.38H671.2a20.41,20.41,0,0,1,20.38,20.38V525a20.41,20.41,0,0,1-20.38,20.38H128.8A20.41,20.41,0,0,1,108.42,525Z"/><path d="M680.25,525V215.75a9.06,9.06,0,0,0-9-9.05H128.8a9.06,9.06,0,0,0-9.05,9.05V525A9.07,9.07,0,0,0,128.8,534H671.2A9.07,9.07,0,0,0,680.25,525Zm-69.67-53.53A21.54,21.54,0,0,1,589.06,493H210.94a21.54,21.54,0,0,1-21.52-21.52V269.28a21.55,21.55,0,0,1,21.52-21.52H589.06a21.55,21.55,0,0,1,21.52,21.52Z"/><path d="M198.48,471.45a12.47,12.47,0,0,0,12.46,12.46H589.06a12.47,12.47,0,0,0,12.46-12.46V295.83h-403Zm107.76-56.84H276.62V443.2a10.43,10.43,0,1,1-4.53,0V412.34a2.27,2.27,0,0,1,2.27-2.27h31.88a2.27,2.27,0,1,1,0,4.54Zm219.4,49.2a10.43,10.43,0,0,1-2.26-20.61V414.61H493.76a2.27,2.27,0,1,1,0-4.54h31.88a2.27,2.27,0,0,1,2.27,2.27V443.2a10.43,10.43,0,0,1-2.27,20.61Zm-31.88-98.05h29.62V337.17a10.43,10.43,0,1,1,4.53,0V368a2.27,2.27,0,0,1-2.27,2.26H493.76a2.27,2.27,0,1,1,0-4.53Zm-12.1,22.16H531.8a10.43,10.43,0,1,1,0,4.53H481.66a2.27,2.27,0,1,1,0-4.53ZM400,315.36a74.83,74.83,0,1,1-74.82,74.82A74.91,74.91,0,0,1,400,315.36Zm-125.64,1.2a10.43,10.43,0,0,1,2.26,20.61v28.59h29.62a2.27,2.27,0,1,1,0,4.53H274.36a2.27,2.27,0,0,1-2.27-2.26V337.17a10.43,10.43,0,0,1,2.27-20.61ZM258,379.75a10.44,10.44,0,0,1,10.17,8.17h50.14a2.27,2.27,0,1,1,0,4.53H268.2A10.43,10.43,0,1,1,258,379.75Z"/></g><text x="0" y="815" fill="#000000" font-size="5px" font-weight="bold" font-family="'Helvetica Neue', Helvetica, Arial-Unicode, Arial, Sans-serif">Created by Soremba</text><text x="0" y="820" fill="#000000" font-size="5px" font-weight="bold" font-family="'Helvetica Neue', Helvetica, Arial-Unicode, Arial, Sans-serif">from the Noun Project</text></svg>