<svg xmlns="http://www.w3.org/2000/svg" xmlns:xlink="http://www.w3.org/1999/xlink" version="1.1" x="0px" y="0px"
    viewBox="0 0 64 80" enable-background="new 0 0 64 64" xml:space="preserve">
    <g>
        <path
            d="M61.91,22.357l-3.269-3.885c-0.091-0.108-0.201-0.2-0.325-0.27l-0.058-0.032c-0.034-0.026-0.064-0.057-0.102-0.08   c-0.064-0.039-0.135-0.063-0.205-0.087L32.645,4.24c-0.013-0.016-0.026-0.031-0.04-0.045c-0.369-0.402-0.966-0.5-1.446-0.237   L5.673,17.936c-0.045,0.008-0.089,0.02-0.134,0.032c-0.043,0.013-0.084,0.029-0.126,0.047c-0.034,0.015-0.07,0.021-0.103,0.039   c-0.033,0.018-0.058,0.044-0.089,0.065c-0.038,0.024-0.073,0.049-0.107,0.078c-0.063,0.053-0.117,0.112-0.167,0.175   c-0.017,0.022-0.041,0.036-0.056,0.059l-2.873,4.208c-0.183,0.268-0.249,0.599-0.181,0.916c0.067,0.317,0.261,0.593,0.537,0.764   l2.31,1.431v19.037c0,0.434,0.236,0.833,0.616,1.042l25.857,14.213c0.179,0.098,0.376,0.147,0.573,0.147   c0.209,0,0.418-0.055,0.605-0.166c0.017-0.01,0.029-0.024,0.045-0.035l25.757-14.171c0.048-0.026,0.078-0.07,0.121-0.102   c0.066-0.049,0.131-0.096,0.186-0.158c0.051-0.058,0.088-0.122,0.126-0.188c0.039-0.065,0.077-0.126,0.103-0.199   c0.028-0.079,0.038-0.159,0.049-0.243c0.007-0.052,0.031-0.098,0.031-0.152V25.778l2.838-1.624c0.306-0.175,0.518-0.477,0.58-0.824   C62.232,22.983,62.136,22.626,61.91,22.357z M31.718,31.951l-2.365-1.299l2.377-1.578l2.378,1.579l-0.596,0.326L31.718,31.951z    M8.41,19.146L30.495,7.033v20.008l-3.494,2.319L8.41,19.146z M36.462,29.362l-3.591-2.384V7.07l22.17,12.056L36.462,29.362z    M6.242,20.667l20.225,11.111c0.022,0.012,0.043,0.024,0.065,0.036l3.595,1.975l-0.205,0.382l-1.314,2.435L6.499,24.078   l-1.816-1.126L6.242,20.667z M7.061,27.128l21.437,12.148c0.18,0.102,0.382,0.154,0.586,0.154c0.111,0,0.222-0.015,0.33-0.046   c0.071-0.021,0.127-0.067,0.192-0.1c0.038-0.018,0.075-0.035,0.11-0.057c0.068-0.043,0.129-0.089,0.187-0.146   c0.046-0.044,0.084-0.097,0.124-0.149c0.033-0.044,0.079-0.078,0.105-0.127l0.411-0.765v8.465V56.99L7.061,44.083V27.128z    M56.375,44.072L32.918,56.978V46.504V37.72l0.646,1.113c0.221,0.379,0.619,0.592,1.029,0.592c0.2,0,0.403-0.051,0.589-0.157   l7.031-4.024c0.002-0.001,0.004-0.001,0.006-0.002l12.052-6.899l2.103-1.203V44.072z M56.977,24.056c-0.001,0-0.002,0-0.003,0.001   l-4.081,2.336L35.027,36.618l-1.657-2.852l0.769-0.423l2.833-1.535c0.027-0.015,0.043-0.041,0.068-0.057   c0.013-0.008,0.025-0.016,0.038-0.025l20.237-11.138l1.859,2.21L56.977,24.056z" />
    </g>
</svg>