<svg xmlns="http://www.w3.org/2000/svg" viewBox="0 0 512 640" x="0px" y="0px">
    <title>power-Plant-station-Energy-Industry</title>
    <g>
        <rect x="232" y="392" width="24" height="16" />
        <rect x="64" y="424" width="24" height="16" />
        <rect x="112" y="424" width="24" height="16" />
        <rect x="160" y="424" width="24" height="16" />
        <rect x="280" y="392" width="24" height="16" />
        <rect x="328" y="392" width="24" height="16" />
        <rect x="376" y="392" width="24" height="16" />
        <rect x="424" y="392" width="24" height="16" />
        <path
            d="M493.657,333.657A8,8,0,0,0,496,328V312a8,8,0,0,0-8-8H88a8,8,0,0,0-8,8v16a8,8,0,0,0,2.343,5.657L96,347.314V376h16V352H464v96H232v16H464v16H216V400a8,8,0,0,0-8-8H40a8,8,0,0,0-8,8v80H16v16H496V480H480V347.314ZM48,408H200v72H48Zm48-88H480v4.687L468.687,336H107.313L96,324.687Z" />
        <path
            d="M416,208V184H400v24h-8a8,8,0,0,0-8,8v24H328a8,8,0,0,0-8,8v40h16V256h48v32h16V224h48v64h16V216a8,8,0,0,0-8-8h-8V168H432v40Z" />
        <rect x="416" y="240" width="16" height="16" />
        <rect x="416" y="272" width="16" height="16" />
        <rect x="352" y="272" width="16" height="16" />
        <path
            d="M134.233,291.923A270.624,270.624,0,0,0,167.116,192h81.768a270.643,270.643,0,0,0,32.883,99.923l13.943-7.846A254.711,254.711,0,0,1,265,191.931,8,8,0,0,0,272,184V152a8,8,0,0,0-8-8H152a8,8,0,0,0-8,8v32a8,8,0,0,0,7,7.931,254.711,254.711,0,0,1-30.714,92.146ZM160,160h96v16H160Z" />
        <path
            d="M288,176v16h48.871a273.379,273.379,0,0,0,6.43,33.985l15.5-3.97a257.19,257.19,0,0,1-5.81-30.083A8,8,0,0,0,360,184V152a8,8,0,0,0-8-8H288v16h56v16Z" />
        <path
            d="M184,112a8.009,8.009,0,0,1,8-8h41.376A23.889,23.889,0,0,0,232,112v16h16V112a8.009,8.009,0,0,1,8-8H364a28,28,0,0,0,0-56H292a12,12,0,0,1,0-24H424V8H292a28,28,0,0,0,0,56h72a12,12,0,0,1,0,24H192a24.027,24.027,0,0,0-24,24v16h16Z" />
        <rect x="440" y="8" width="16" height="16" />
    </g>
</svg>